<mxfile host="Electron" agent="Mozilla/5.0 (Macintosh; Intel Mac OS X 10_15_7) AppleWebKit/537.36 (KHTML, like Gecko) draw.io/26.2.2 Chrome/134.0.6998.178 Electron/35.1.2 Safari/537.36" version="26.2.2">
  <diagram id="ojYw7-lMIOfrBkac1BTR" name="Page-1">
    <mxGraphModel dx="2601" dy="1224" grid="1" gridSize="10" guides="1" tooltips="1" connect="1" arrows="1" fold="1" page="1" pageScale="1" pageWidth="850" pageHeight="1100" math="0" shadow="0">
      <root>
        <mxCell id="0" />
        <mxCell id="1" parent="0" />
        <mxCell id="sXabFZIURpEES0_cBn82-1" value="&lt;font style=&quot;font-size: 14px;&quot;&gt;&lt;b&gt;MAIN&lt;/b&gt;&lt;/font&gt;" style="rounded=0;whiteSpace=wrap;html=1;" parent="1" vertex="1">
          <mxGeometry x="335" y="110" width="180" height="90" as="geometry" />
        </mxCell>
        <mxCell id="sXabFZIURpEES0_cBn82-5" value="" style="endArrow=none;html=1;rounded=0;entryX=0.5;entryY=1;entryDx=0;entryDy=0;exitX=0.5;exitY=0;exitDx=0;exitDy=0;" parent="1" source="sXabFZIURpEES0_cBn82-6" target="sXabFZIURpEES0_cBn82-1" edge="1">
          <mxGeometry width="50" height="50" relative="1" as="geometry">
            <mxPoint x="160" y="330" as="sourcePoint" />
            <mxPoint x="425" y="200" as="targetPoint" />
          </mxGeometry>
        </mxCell>
        <mxCell id="sXabFZIURpEES0_cBn82-6" value="&lt;font style=&quot;font-size: 14px;&quot;&gt;welcome page&lt;/font&gt;" style="rounded=0;whiteSpace=wrap;html=1;" parent="1" vertex="1">
          <mxGeometry x="-150" y="310" width="180" height="90" as="geometry" />
        </mxCell>
        <mxCell id="sXabFZIURpEES0_cBn82-8" value="" style="endArrow=none;html=1;rounded=0;entryX=0.5;entryY=1;entryDx=0;entryDy=0;exitX=0.5;exitY=0;exitDx=0;exitDy=0;" parent="1" source="sXabFZIURpEES0_cBn82-9" target="sXabFZIURpEES0_cBn82-6" edge="1">
          <mxGeometry width="50" height="50" relative="1" as="geometry">
            <mxPoint x="-170" y="540" as="sourcePoint" />
            <mxPoint x="35" y="500" as="targetPoint" />
          </mxGeometry>
        </mxCell>
        <mxCell id="sXabFZIURpEES0_cBn82-9" value="&lt;font style=&quot;font-size: 14px;&quot;&gt;Get name&lt;/font&gt;" style="rounded=0;whiteSpace=wrap;html=1;" parent="1" vertex="1">
          <mxGeometry x="-340" y="540" width="160" height="100" as="geometry" />
        </mxCell>
        <mxCell id="sXabFZIURpEES0_cBn82-10" value="" style="endArrow=classic;html=1;rounded=0;curved=0;startArrow=oval;startFill=0;" parent="1" edge="1">
          <mxGeometry width="50" height="50" relative="1" as="geometry">
            <mxPoint x="-190" y="520" as="sourcePoint" />
            <mxPoint x="-130" y="470" as="targetPoint" />
          </mxGeometry>
        </mxCell>
        <mxCell id="sXabFZIURpEES0_cBn82-11" value="&lt;font style=&quot;font-size: 13px;&quot;&gt;name&lt;/font&gt;" style="edgeLabel;html=1;align=center;verticalAlign=middle;resizable=0;points=[];" parent="sXabFZIURpEES0_cBn82-10" vertex="1" connectable="0">
          <mxGeometry x="0.048" y="-1" relative="1" as="geometry">
            <mxPoint as="offset" />
          </mxGeometry>
        </mxCell>
        <mxCell id="sXabFZIURpEES0_cBn82-12" value="" style="endArrow=classic;html=1;rounded=0;curved=0;startArrow=oval;startFill=0;" parent="1" edge="1">
          <mxGeometry width="50" height="50" relative="1" as="geometry">
            <mxPoint x="-20" y="460" as="sourcePoint" />
            <mxPoint x="60" y="520" as="targetPoint" />
          </mxGeometry>
        </mxCell>
        <mxCell id="sXabFZIURpEES0_cBn82-13" value="&lt;font style=&quot;font-size: 13px;&quot;&gt;name&lt;/font&gt;" style="edgeLabel;html=1;align=center;verticalAlign=middle;resizable=0;points=[];" parent="sXabFZIURpEES0_cBn82-12" vertex="1" connectable="0">
          <mxGeometry x="0.048" y="-1" relative="1" as="geometry">
            <mxPoint as="offset" />
          </mxGeometry>
        </mxCell>
        <mxCell id="sXabFZIURpEES0_cBn82-14" value="" style="endArrow=none;html=1;rounded=0;exitX=0.5;exitY=0;exitDx=0;exitDy=0;entryX=0.5;entryY=1;entryDx=0;entryDy=0;" parent="1" source="sXabFZIURpEES0_cBn82-15" target="sXabFZIURpEES0_cBn82-6" edge="1">
          <mxGeometry width="50" height="50" relative="1" as="geometry">
            <mxPoint x="275" y="635" as="sourcePoint" />
            <mxPoint x="10" y="450" as="targetPoint" />
          </mxGeometry>
        </mxCell>
        <mxCell id="sXabFZIURpEES0_cBn82-15" value="&lt;font style=&quot;font-size: 14px;&quot;&gt;Display welcome banner&lt;/font&gt;" style="rounded=0;whiteSpace=wrap;html=1;" parent="1" vertex="1">
          <mxGeometry x="40" y="550" width="160" height="100" as="geometry" />
        </mxCell>
        <mxCell id="sXabFZIURpEES0_cBn82-18" value="&lt;font style=&quot;font-size: 14px;&quot;&gt;choose category&lt;/font&gt;" style="rounded=0;whiteSpace=wrap;html=1;" parent="1" vertex="1">
          <mxGeometry x="50" y="800" width="180" height="90" as="geometry" />
        </mxCell>
        <mxCell id="sXabFZIURpEES0_cBn82-19" value="" style="endArrow=none;html=1;rounded=0;entryX=0.5;entryY=1;entryDx=0;entryDy=0;exitX=0.5;exitY=0;exitDx=0;exitDy=0;" parent="1" source="sXabFZIURpEES0_cBn82-20" edge="1">
          <mxGeometry width="50" height="50" relative="1" as="geometry">
            <mxPoint x="430" y="840" as="sourcePoint" />
            <mxPoint x="140" y="890" as="targetPoint" />
          </mxGeometry>
        </mxCell>
        <mxCell id="sXabFZIURpEES0_cBn82-20" value="&lt;font style=&quot;font-size: 14px;&quot;&gt;Check if there are unplayed categories&lt;/font&gt;" style="rounded=0;whiteSpace=wrap;html=1;" parent="1" vertex="1">
          <mxGeometry x="-190" y="1120" width="160" height="100" as="geometry" />
        </mxCell>
        <mxCell id="sXabFZIURpEES0_cBn82-21" value="" style="endArrow=classic;html=1;rounded=0;curved=0;startArrow=oval;startFill=0;" parent="1" edge="1">
          <mxGeometry width="50" height="50" relative="1" as="geometry">
            <mxPoint x="300" y="580" as="sourcePoint" />
            <mxPoint x="260" y="630" as="targetPoint" />
          </mxGeometry>
        </mxCell>
        <mxCell id="sXabFZIURpEES0_cBn82-22" value="&lt;font style=&quot;font-size: 13px;&quot;&gt;name&lt;/font&gt;" style="edgeLabel;html=1;align=center;verticalAlign=middle;resizable=0;points=[];" parent="sXabFZIURpEES0_cBn82-21" vertex="1" connectable="0">
          <mxGeometry x="0.048" y="-1" relative="1" as="geometry">
            <mxPoint as="offset" />
          </mxGeometry>
        </mxCell>
        <mxCell id="sXabFZIURpEES0_cBn82-23" value="" style="endArrow=classic;html=1;rounded=0;curved=0;startArrow=oval;startFill=0;" parent="1" edge="1">
          <mxGeometry width="50" height="50" relative="1" as="geometry">
            <mxPoint x="350" y="505" as="sourcePoint" />
            <mxPoint x="310" y="565" as="targetPoint" />
          </mxGeometry>
        </mxCell>
        <mxCell id="sXabFZIURpEES0_cBn82-24" value="&lt;font style=&quot;font-size: 13px;&quot;&gt;score&lt;/font&gt;" style="edgeLabel;html=1;align=center;verticalAlign=middle;resizable=0;points=[];" parent="sXabFZIURpEES0_cBn82-23" vertex="1" connectable="0">
          <mxGeometry x="0.048" y="-1" relative="1" as="geometry">
            <mxPoint as="offset" />
          </mxGeometry>
        </mxCell>
        <mxCell id="sXabFZIURpEES0_cBn82-26" value="" style="endArrow=classic;html=1;rounded=0;curved=0;startArrow=oval;startFill=0;" parent="1" edge="1">
          <mxGeometry width="50" height="50" relative="1" as="geometry">
            <mxPoint x="190" y="710" as="sourcePoint" />
            <mxPoint x="140" y="770" as="targetPoint" />
          </mxGeometry>
        </mxCell>
        <mxCell id="sXabFZIURpEES0_cBn82-27" value="&lt;font style=&quot;font-size: 13px;&quot;&gt;imported&amp;nbsp;&lt;/font&gt;&lt;div&gt;&lt;font style=&quot;font-size: 13px;&quot;&gt;question&lt;/font&gt;&lt;/div&gt;" style="edgeLabel;html=1;align=center;verticalAlign=middle;resizable=0;points=[];" parent="sXabFZIURpEES0_cBn82-26" vertex="1" connectable="0">
          <mxGeometry x="0.048" y="-1" relative="1" as="geometry">
            <mxPoint as="offset" />
          </mxGeometry>
        </mxCell>
        <mxCell id="sXabFZIURpEES0_cBn82-28" value="" style="endArrow=classic;html=1;rounded=0;curved=0;startArrow=oval;startFill=0;" parent="1" edge="1">
          <mxGeometry width="50" height="50" relative="1" as="geometry">
            <mxPoint x="250" y="640" as="sourcePoint" />
            <mxPoint x="200" y="690" as="targetPoint" />
          </mxGeometry>
        </mxCell>
        <mxCell id="sXabFZIURpEES0_cBn82-29" value="&lt;font style=&quot;font-size: 13px;&quot;&gt;played&lt;/font&gt;&lt;div&gt;&lt;font style=&quot;font-size: 13px;&quot;&gt;category&lt;/font&gt;&lt;/div&gt;" style="edgeLabel;html=1;align=center;verticalAlign=middle;resizable=0;points=[];" parent="sXabFZIURpEES0_cBn82-28" vertex="1" connectable="0">
          <mxGeometry x="0.048" y="-1" relative="1" as="geometry">
            <mxPoint as="offset" />
          </mxGeometry>
        </mxCell>
        <mxCell id="sXabFZIURpEES0_cBn82-31" value="" style="endArrow=classic;html=1;rounded=0;curved=0;startArrow=oval;startFill=0;" parent="1" edge="1">
          <mxGeometry width="50" height="50" relative="1" as="geometry">
            <mxPoint x="70" y="920" as="sourcePoint" />
            <mxPoint x="10" y="980" as="targetPoint" />
          </mxGeometry>
        </mxCell>
        <mxCell id="sXabFZIURpEES0_cBn82-32" value="&lt;font style=&quot;font-size: 13px;&quot;&gt;played&lt;/font&gt;&lt;div&gt;&lt;font style=&quot;font-size: 13px;&quot;&gt;category&lt;/font&gt;&lt;/div&gt;" style="edgeLabel;html=1;align=center;verticalAlign=middle;resizable=0;points=[];" parent="sXabFZIURpEES0_cBn82-31" vertex="1" connectable="0">
          <mxGeometry x="0.048" y="-1" relative="1" as="geometry">
            <mxPoint as="offset" />
          </mxGeometry>
        </mxCell>
        <mxCell id="sXabFZIURpEES0_cBn82-35" value="" style="endArrow=classic;html=1;rounded=0;curved=0;startArrow=oval;startFill=0;" parent="1" edge="1">
          <mxGeometry width="50" height="50" relative="1" as="geometry">
            <mxPoint y="990" as="sourcePoint" />
            <mxPoint x="-60" y="1050" as="targetPoint" />
          </mxGeometry>
        </mxCell>
        <mxCell id="sXabFZIURpEES0_cBn82-36" value="&lt;font style=&quot;font-size: 13px;&quot;&gt;name&lt;/font&gt;" style="edgeLabel;html=1;align=center;verticalAlign=middle;resizable=0;points=[];" parent="sXabFZIURpEES0_cBn82-35" vertex="1" connectable="0">
          <mxGeometry x="0.048" y="-1" relative="1" as="geometry">
            <mxPoint as="offset" />
          </mxGeometry>
        </mxCell>
        <mxCell id="sXabFZIURpEES0_cBn82-37" value="" style="endArrow=classic;html=1;rounded=0;curved=0;startArrow=oval;startFill=0;" parent="1" edge="1">
          <mxGeometry width="50" height="50" relative="1" as="geometry">
            <mxPoint x="-70" y="1060" as="sourcePoint" />
            <mxPoint x="-120" y="1110" as="targetPoint" />
          </mxGeometry>
        </mxCell>
        <mxCell id="sXabFZIURpEES0_cBn82-38" value="&lt;font style=&quot;font-size: 13px;&quot;&gt;score&lt;/font&gt;" style="edgeLabel;html=1;align=center;verticalAlign=middle;resizable=0;points=[];" parent="sXabFZIURpEES0_cBn82-37" vertex="1" connectable="0">
          <mxGeometry x="0.048" y="-1" relative="1" as="geometry">
            <mxPoint as="offset" />
          </mxGeometry>
        </mxCell>
        <mxCell id="sXabFZIURpEES0_cBn82-39" value="" style="endArrow=none;html=1;rounded=0;entryX=0.5;entryY=1;entryDx=0;entryDy=0;exitX=0.5;exitY=0;exitDx=0;exitDy=0;fontStyle=1" parent="1" source="sXabFZIURpEES0_cBn82-40" target="sXabFZIURpEES0_cBn82-20" edge="1">
          <mxGeometry width="50" height="50" relative="1" as="geometry">
            <mxPoint x="140" y="1210" as="sourcePoint" />
            <mxPoint x="-150" y="1260" as="targetPoint" />
          </mxGeometry>
        </mxCell>
        <mxCell id="sXabFZIURpEES0_cBn82-40" value="&lt;font style=&quot;font-size: 14px;&quot;&gt;Add score and name to leaderboard dictionary&lt;/font&gt;" style="rounded=0;whiteSpace=wrap;html=1;fontStyle=1" parent="1" vertex="1">
          <mxGeometry x="-520" y="1400" width="160" height="100" as="geometry" />
        </mxCell>
        <mxCell id="X6ZK_VWTvWv8BpxGQSlV-1" value="" style="endArrow=classic;html=1;rounded=0;curved=0;startArrow=oval;startFill=0;fontStyle=1" parent="1" edge="1">
          <mxGeometry width="50" height="50" relative="1" as="geometry">
            <mxPoint x="-330" y="1320" as="sourcePoint" />
            <mxPoint x="-430" y="1380" as="targetPoint" />
          </mxGeometry>
        </mxCell>
        <mxCell id="X6ZK_VWTvWv8BpxGQSlV-2" value="&lt;font style=&quot;font-size: 13px;&quot;&gt;name&lt;/font&gt;" style="edgeLabel;html=1;align=center;verticalAlign=middle;resizable=0;points=[];" parent="X6ZK_VWTvWv8BpxGQSlV-1" vertex="1" connectable="0">
          <mxGeometry x="0.048" y="-1" relative="1" as="geometry">
            <mxPoint as="offset" />
          </mxGeometry>
        </mxCell>
        <mxCell id="X6ZK_VWTvWv8BpxGQSlV-3" value="" style="endArrow=classic;html=1;rounded=0;curved=0;startArrow=oval;startFill=0;fontStyle=1" parent="1" edge="1">
          <mxGeometry width="50" height="50" relative="1" as="geometry">
            <mxPoint x="-200" y="1240" as="sourcePoint" />
            <mxPoint x="-300" y="1310" as="targetPoint" />
          </mxGeometry>
        </mxCell>
        <mxCell id="X6ZK_VWTvWv8BpxGQSlV-4" value="&lt;font style=&quot;font-size: 13px;&quot;&gt;score&lt;/font&gt;" style="edgeLabel;html=1;align=center;verticalAlign=middle;resizable=0;points=[];" parent="X6ZK_VWTvWv8BpxGQSlV-3" vertex="1" connectable="0">
          <mxGeometry x="0.048" y="-1" relative="1" as="geometry">
            <mxPoint as="offset" />
          </mxGeometry>
        </mxCell>
        <mxCell id="X6ZK_VWTvWv8BpxGQSlV-6" value="" style="endArrow=none;html=1;rounded=0;entryX=0.5;entryY=1;entryDx=0;entryDy=0;exitX=0.5;exitY=0;exitDx=0;exitDy=0;" parent="1" source="X6ZK_VWTvWv8BpxGQSlV-7" target="sXabFZIURpEES0_cBn82-40" edge="1">
          <mxGeometry width="50" height="50" relative="1" as="geometry">
            <mxPoint x="-80" y="1520" as="sourcePoint" />
            <mxPoint x="-330" y="1530" as="targetPoint" />
          </mxGeometry>
        </mxCell>
        <mxCell id="X6ZK_VWTvWv8BpxGQSlV-7" value="&lt;font style=&quot;font-size: 14px;&quot;&gt;Sort leaderboard order according to score&lt;/font&gt;" style="rounded=0;whiteSpace=wrap;html=1;" parent="1" vertex="1">
          <mxGeometry x="-660" y="1800" width="160" height="100" as="geometry" />
        </mxCell>
        <mxCell id="X6ZK_VWTvWv8BpxGQSlV-8" value="" style="endArrow=classic;html=1;rounded=0;curved=0;startArrow=oval;startFill=0;" parent="1" edge="1">
          <mxGeometry width="50" height="50" relative="1" as="geometry">
            <mxPoint x="-500" y="1590" as="sourcePoint" />
            <mxPoint x="-540" y="1660" as="targetPoint" />
          </mxGeometry>
        </mxCell>
        <mxCell id="X6ZK_VWTvWv8BpxGQSlV-9" value="&lt;font style=&quot;font-size: 13px;&quot;&gt;name&lt;/font&gt;" style="edgeLabel;html=1;align=center;verticalAlign=middle;resizable=0;points=[];" parent="X6ZK_VWTvWv8BpxGQSlV-8" vertex="1" connectable="0">
          <mxGeometry x="0.048" y="-1" relative="1" as="geometry">
            <mxPoint as="offset" />
          </mxGeometry>
        </mxCell>
        <mxCell id="X6ZK_VWTvWv8BpxGQSlV-10" value="" style="endArrow=classic;html=1;rounded=0;curved=0;startArrow=oval;startFill=0;" parent="1" edge="1">
          <mxGeometry width="50" height="50" relative="1" as="geometry">
            <mxPoint x="-470" y="1510" as="sourcePoint" />
            <mxPoint x="-500" y="1580" as="targetPoint" />
          </mxGeometry>
        </mxCell>
        <mxCell id="X6ZK_VWTvWv8BpxGQSlV-11" value="&lt;font style=&quot;font-size: 13px;&quot;&gt;score&lt;/font&gt;" style="edgeLabel;html=1;align=center;verticalAlign=middle;resizable=0;points=[];" parent="X6ZK_VWTvWv8BpxGQSlV-10" vertex="1" connectable="0">
          <mxGeometry x="0.048" y="-1" relative="1" as="geometry">
            <mxPoint as="offset" />
          </mxGeometry>
        </mxCell>
        <mxCell id="X6ZK_VWTvWv8BpxGQSlV-12" value="" style="endArrow=classic;html=1;rounded=0;curved=0;startArrow=oval;startFill=0;" parent="1" edge="1">
          <mxGeometry width="50" height="50" relative="1" as="geometry">
            <mxPoint x="-540" y="1680" as="sourcePoint" />
            <mxPoint x="-590" y="1780" as="targetPoint" />
          </mxGeometry>
        </mxCell>
        <mxCell id="X6ZK_VWTvWv8BpxGQSlV-13" value="&lt;font style=&quot;font-size: 13px;&quot;&gt;Leaderboard&lt;/font&gt;&lt;div&gt;&lt;font style=&quot;font-size: 13px;&quot;&gt;dictionary&lt;/font&gt;&lt;/div&gt;" style="edgeLabel;html=1;align=center;verticalAlign=middle;resizable=0;points=[];" parent="X6ZK_VWTvWv8BpxGQSlV-12" vertex="1" connectable="0">
          <mxGeometry x="0.048" y="-1" relative="1" as="geometry">
            <mxPoint as="offset" />
          </mxGeometry>
        </mxCell>
        <mxCell id="X6ZK_VWTvWv8BpxGQSlV-15" value="" style="endArrow=none;html=1;rounded=0;entryX=0.5;entryY=1;entryDx=0;entryDy=0;exitX=0.5;exitY=0;exitDx=0;exitDy=0;" parent="1" source="X6ZK_VWTvWv8BpxGQSlV-16" target="sXabFZIURpEES0_cBn82-40" edge="1">
          <mxGeometry width="50" height="50" relative="1" as="geometry">
            <mxPoint x="330" y="1540" as="sourcePoint" />
            <mxPoint x="-300" y="1530" as="targetPoint" />
          </mxGeometry>
        </mxCell>
        <mxCell id="X6ZK_VWTvWv8BpxGQSlV-16" value="&lt;font style=&quot;font-size: 14px;&quot;&gt;Delete lowest score ranking&lt;/font&gt;" style="rounded=0;whiteSpace=wrap;html=1;" parent="1" vertex="1">
          <mxGeometry x="-250" y="1790" width="160" height="100" as="geometry" />
        </mxCell>
        <mxCell id="X6ZK_VWTvWv8BpxGQSlV-17" value="" style="endArrow=classic;html=1;rounded=0;curved=0;startArrow=oval;startFill=0;" parent="1" edge="1">
          <mxGeometry width="50" height="50" relative="1" as="geometry">
            <mxPoint x="-360" y="1610" as="sourcePoint" />
            <mxPoint x="-280" y="1700" as="targetPoint" />
          </mxGeometry>
        </mxCell>
        <mxCell id="X6ZK_VWTvWv8BpxGQSlV-18" value="&lt;font style=&quot;font-size: 13px;&quot;&gt;Leaderboard&lt;/font&gt;&lt;div&gt;&lt;font style=&quot;font-size: 13px;&quot;&gt;dictionary&lt;/font&gt;&lt;/div&gt;" style="edgeLabel;html=1;align=center;verticalAlign=middle;resizable=0;points=[];" parent="X6ZK_VWTvWv8BpxGQSlV-17" vertex="1" connectable="0">
          <mxGeometry x="0.048" y="-1" relative="1" as="geometry">
            <mxPoint as="offset" />
          </mxGeometry>
        </mxCell>
        <mxCell id="X6ZK_VWTvWv8BpxGQSlV-19" value="" style="endArrow=classic;html=1;rounded=0;curved=0;startArrow=oval;startFill=0;" parent="1" edge="1">
          <mxGeometry width="50" height="50" relative="1" as="geometry">
            <mxPoint x="-240" y="1670" as="sourcePoint" />
            <mxPoint x="-320" y="1570" as="targetPoint" />
          </mxGeometry>
        </mxCell>
        <mxCell id="X6ZK_VWTvWv8BpxGQSlV-20" value="&lt;font style=&quot;font-size: 13px;&quot;&gt;Leaderboard&lt;/font&gt;&lt;div&gt;&lt;font style=&quot;font-size: 13px;&quot;&gt;dictionary&lt;/font&gt;&lt;/div&gt;" style="edgeLabel;html=1;align=center;verticalAlign=middle;resizable=0;points=[];" parent="X6ZK_VWTvWv8BpxGQSlV-19" vertex="1" connectable="0">
          <mxGeometry x="0.048" y="-1" relative="1" as="geometry">
            <mxPoint as="offset" />
          </mxGeometry>
        </mxCell>
        <mxCell id="X6ZK_VWTvWv8BpxGQSlV-21" value="" style="endArrow=classic;html=1;rounded=0;curved=0;startArrow=oval;startFill=0;" parent="1" edge="1">
          <mxGeometry width="50" height="50" relative="1" as="geometry">
            <mxPoint x="-320" y="1370" as="sourcePoint" />
            <mxPoint x="-210" y="1300" as="targetPoint" />
          </mxGeometry>
        </mxCell>
        <mxCell id="X6ZK_VWTvWv8BpxGQSlV-22" value="&lt;font style=&quot;font-size: 13px;&quot;&gt;Leaderboard&lt;/font&gt;&lt;div&gt;&lt;font style=&quot;font-size: 13px;&quot;&gt;dictionary&lt;/font&gt;&lt;/div&gt;" style="edgeLabel;html=1;align=center;verticalAlign=middle;resizable=0;points=[];" parent="X6ZK_VWTvWv8BpxGQSlV-21" vertex="1" connectable="0">
          <mxGeometry x="0.048" y="-1" relative="1" as="geometry">
            <mxPoint as="offset" />
          </mxGeometry>
        </mxCell>
        <mxCell id="X6ZK_VWTvWv8BpxGQSlV-26" value="" style="endArrow=none;html=1;rounded=0;entryX=0.5;entryY=1;entryDx=0;entryDy=0;exitX=0.5;exitY=0;exitDx=0;exitDy=0;fontStyle=1" parent="1" source="X6ZK_VWTvWv8BpxGQSlV-27" target="sXabFZIURpEES0_cBn82-20" edge="1">
          <mxGeometry width="50" height="50" relative="1" as="geometry">
            <mxPoint x="490" y="1210" as="sourcePoint" />
            <mxPoint x="240" y="1220" as="targetPoint" />
          </mxGeometry>
        </mxCell>
        <mxCell id="X6ZK_VWTvWv8BpxGQSlV-27" value="&lt;span style=&quot;font-size: 14px;&quot;&gt;saves leaderboard&lt;/span&gt;&lt;div&gt;&lt;span style=&quot;font-size: 14px;&quot;&gt;dictionary into txt file&lt;/span&gt;&lt;/div&gt;" style="rounded=0;whiteSpace=wrap;html=1;fontStyle=1" parent="1" vertex="1">
          <mxGeometry x="-180" y="1400" width="160" height="100" as="geometry" />
        </mxCell>
        <mxCell id="X6ZK_VWTvWv8BpxGQSlV-28" value="" style="endArrow=classic;html=1;rounded=0;curved=0;startArrow=oval;startFill=0;" parent="1" edge="1">
          <mxGeometry width="50" height="50" relative="1" as="geometry">
            <mxPoint x="-130" y="1270" as="sourcePoint" />
            <mxPoint x="-130" y="1390" as="targetPoint" />
          </mxGeometry>
        </mxCell>
        <mxCell id="X6ZK_VWTvWv8BpxGQSlV-29" value="&lt;font style=&quot;font-size: 13px;&quot;&gt;Leaderboard&lt;/font&gt;&lt;div&gt;&lt;font style=&quot;font-size: 13px;&quot;&gt;dictionary&lt;/font&gt;&lt;/div&gt;" style="edgeLabel;html=1;align=center;verticalAlign=middle;resizable=0;points=[];" parent="X6ZK_VWTvWv8BpxGQSlV-28" vertex="1" connectable="0">
          <mxGeometry x="0.048" y="-1" relative="1" as="geometry">
            <mxPoint as="offset" />
          </mxGeometry>
        </mxCell>
        <mxCell id="X6ZK_VWTvWv8BpxGQSlV-30" value="" style="endArrow=classic;html=1;rounded=0;curved=0;startArrow=oval;startFill=0;" parent="1" edge="1">
          <mxGeometry width="50" height="50" relative="1" as="geometry">
            <mxPoint x="-80" y="1360" as="sourcePoint" />
            <mxPoint x="-80" y="1250" as="targetPoint" />
          </mxGeometry>
        </mxCell>
        <mxCell id="X6ZK_VWTvWv8BpxGQSlV-31" value="&lt;span style=&quot;font-size: 13px;&quot;&gt;Leaderboard&lt;/span&gt;&lt;div&gt;&lt;span style=&quot;font-size: 13px;&quot;&gt;.txt&lt;/span&gt;&lt;/div&gt;" style="edgeLabel;html=1;align=center;verticalAlign=middle;resizable=0;points=[];" parent="X6ZK_VWTvWv8BpxGQSlV-30" vertex="1" connectable="0">
          <mxGeometry x="0.048" y="-1" relative="1" as="geometry">
            <mxPoint as="offset" />
          </mxGeometry>
        </mxCell>
        <mxCell id="X6ZK_VWTvWv8BpxGQSlV-32" value="" style="endArrow=none;html=1;rounded=0;entryX=0.5;entryY=1;entryDx=0;entryDy=0;exitX=0.5;exitY=0;exitDx=0;exitDy=0;fontStyle=1" parent="1" source="X6ZK_VWTvWv8BpxGQSlV-33" target="sXabFZIURpEES0_cBn82-20" edge="1">
          <mxGeometry width="50" height="50" relative="1" as="geometry">
            <mxPoint x="750" y="1200" as="sourcePoint" />
            <mxPoint x="150" y="1210" as="targetPoint" />
          </mxGeometry>
        </mxCell>
        <mxCell id="X6ZK_VWTvWv8BpxGQSlV-33" value="&lt;font style=&quot;font-size: 14px;&quot;&gt;Display leaderboard.txt&lt;/font&gt;" style="rounded=0;whiteSpace=wrap;html=1;fontStyle=1" parent="1" vertex="1">
          <mxGeometry x="90" y="1400" width="160" height="100" as="geometry" />
        </mxCell>
        <mxCell id="X6ZK_VWTvWv8BpxGQSlV-34" value="" style="endArrow=classic;html=1;rounded=0;curved=0;startArrow=oval;startFill=0;" parent="1" edge="1">
          <mxGeometry width="50" height="50" relative="1" as="geometry">
            <mxPoint x="-30" y="1300" as="sourcePoint" />
            <mxPoint x="80" y="1370" as="targetPoint" />
          </mxGeometry>
        </mxCell>
        <mxCell id="X6ZK_VWTvWv8BpxGQSlV-35" value="&lt;span style=&quot;font-size: 13px;&quot;&gt;Leaderboard&lt;/span&gt;&lt;div&gt;&lt;span style=&quot;font-size: 13px;&quot;&gt;.txt&lt;/span&gt;&lt;/div&gt;" style="edgeLabel;html=1;align=center;verticalAlign=middle;resizable=0;points=[];" parent="X6ZK_VWTvWv8BpxGQSlV-34" vertex="1" connectable="0">
          <mxGeometry x="0.048" y="-1" relative="1" as="geometry">
            <mxPoint as="offset" />
          </mxGeometry>
        </mxCell>
        <mxCell id="X6ZK_VWTvWv8BpxGQSlV-38" value="" style="endArrow=none;html=1;rounded=0;entryX=0.5;entryY=1;entryDx=0;entryDy=0;exitX=0.5;exitY=0;exitDx=0;exitDy=0;fontStyle=1" parent="1" source="X6ZK_VWTvWv8BpxGQSlV-39" target="sXabFZIURpEES0_cBn82-20" edge="1">
          <mxGeometry width="50" height="50" relative="1" as="geometry">
            <mxPoint x="1010" y="1200" as="sourcePoint" />
            <mxPoint x="150" y="1220" as="targetPoint" />
          </mxGeometry>
        </mxCell>
        <mxCell id="X6ZK_VWTvWv8BpxGQSlV-39" value="&lt;font style=&quot;font-size: 14px;&quot;&gt;play again prompt&lt;/font&gt;" style="rounded=0;whiteSpace=wrap;html=1;fontStyle=1" parent="1" vertex="1">
          <mxGeometry x="340" y="1400" width="160" height="100" as="geometry" />
        </mxCell>
        <mxCell id="X6ZK_VWTvWv8BpxGQSlV-40" value="" style="endArrow=classic;html=1;rounded=0;curved=0;startArrow=oval;startFill=1;" parent="1" edge="1">
          <mxGeometry width="50" height="50" relative="1" as="geometry">
            <mxPoint x="260" y="1330" as="sourcePoint" />
            <mxPoint x="170" y="1290" as="targetPoint" />
          </mxGeometry>
        </mxCell>
        <mxCell id="X6ZK_VWTvWv8BpxGQSlV-41" value="&lt;span style=&quot;font-size: 13px;&quot;&gt;Play again&lt;/span&gt;" style="edgeLabel;html=1;align=center;verticalAlign=middle;resizable=0;points=[];" parent="X6ZK_VWTvWv8BpxGQSlV-40" vertex="1" connectable="0">
          <mxGeometry x="0.048" y="-1" relative="1" as="geometry">
            <mxPoint as="offset" />
          </mxGeometry>
        </mxCell>
        <mxCell id="Giim6YfqNWXIDRQ1aki3-1" value="" style="endArrow=none;html=1;rounded=0;entryX=0.5;entryY=1;entryDx=0;entryDy=0;exitX=0.5;exitY=0;exitDx=0;exitDy=0;" parent="1" source="Giim6YfqNWXIDRQ1aki3-2" edge="1">
          <mxGeometry width="50" height="50" relative="1" as="geometry">
            <mxPoint x="780" y="850" as="sourcePoint" />
            <mxPoint x="140" y="890" as="targetPoint" />
          </mxGeometry>
        </mxCell>
        <mxCell id="Giim6YfqNWXIDRQ1aki3-2" value="&lt;font style=&quot;font-size: 14px;&quot;&gt;Display categories&lt;/font&gt;" style="rounded=0;whiteSpace=wrap;html=1;" parent="1" vertex="1">
          <mxGeometry x="30" y="1120" width="160" height="100" as="geometry" />
        </mxCell>
        <mxCell id="Giim6YfqNWXIDRQ1aki3-3" value="" style="endArrow=classic;html=1;rounded=0;curved=0;startArrow=oval;startFill=0;" parent="1" edge="1">
          <mxGeometry width="50" height="50" relative="1" as="geometry">
            <mxPoint x="120" y="960" as="sourcePoint" />
            <mxPoint x="100" y="1070" as="targetPoint" />
          </mxGeometry>
        </mxCell>
        <mxCell id="Giim6YfqNWXIDRQ1aki3-4" value="&lt;span style=&quot;font-size: 13px;&quot;&gt;&quot;Topic&quot;&amp;nbsp;&lt;br&gt;in imported&amp;nbsp;&lt;/span&gt;&lt;div&gt;&lt;span style=&quot;font-size: 13px;&quot;&gt;questions&lt;/span&gt;&lt;/div&gt;" style="edgeLabel;html=1;align=center;verticalAlign=middle;resizable=0;points=[];" parent="Giim6YfqNWXIDRQ1aki3-3" vertex="1" connectable="0">
          <mxGeometry x="0.048" y="-1" relative="1" as="geometry">
            <mxPoint as="offset" />
          </mxGeometry>
        </mxCell>
        <mxCell id="Giim6YfqNWXIDRQ1aki3-6" value="" style="endArrow=none;html=1;rounded=0;exitX=0.5;exitY=0;exitDx=0;exitDy=0;entryX=0.5;entryY=1;entryDx=0;entryDy=0;" parent="1" source="Giim6YfqNWXIDRQ1aki3-7" edge="1">
          <mxGeometry width="50" height="50" relative="1" as="geometry">
            <mxPoint x="1080" y="840" as="sourcePoint" />
            <mxPoint x="140" y="890" as="targetPoint" />
          </mxGeometry>
        </mxCell>
        <mxCell id="Giim6YfqNWXIDRQ1aki3-7" value="&lt;font style=&quot;font-size: 14px;&quot;&gt;Get user input for category&lt;/font&gt;" style="rounded=0;whiteSpace=wrap;html=1;" parent="1" vertex="1">
          <mxGeometry x="230" y="1120" width="160" height="100" as="geometry" />
        </mxCell>
        <mxCell id="Giim6YfqNWXIDRQ1aki3-11" value="" style="endArrow=classic;html=1;rounded=0;curved=0;startArrow=oval;startFill=0;" parent="1" edge="1">
          <mxGeometry width="50" height="50" relative="1" as="geometry">
            <mxPoint x="300" y="1070" as="sourcePoint" />
            <mxPoint x="230" y="980" as="targetPoint" />
          </mxGeometry>
        </mxCell>
        <mxCell id="Giim6YfqNWXIDRQ1aki3-12" value="&lt;span style=&quot;font-size: 13px;&quot;&gt;chosen&amp;nbsp;&lt;/span&gt;&lt;div&gt;&lt;span style=&quot;font-size: 13px;&quot;&gt;category&lt;/span&gt;&lt;/div&gt;" style="edgeLabel;html=1;align=center;verticalAlign=middle;resizable=0;points=[];" parent="Giim6YfqNWXIDRQ1aki3-11" vertex="1" connectable="0">
          <mxGeometry x="0.048" y="-1" relative="1" as="geometry">
            <mxPoint as="offset" />
          </mxGeometry>
        </mxCell>
        <mxCell id="Giim6YfqNWXIDRQ1aki3-13" value="" style="endArrow=classic;html=1;rounded=0;curved=0;startArrow=oval;startFill=1;" parent="1" edge="1">
          <mxGeometry width="50" height="50" relative="1" as="geometry">
            <mxPoint x="-30" y="1090" as="sourcePoint" />
            <mxPoint x="30" y="1030" as="targetPoint" />
          </mxGeometry>
        </mxCell>
        <mxCell id="Giim6YfqNWXIDRQ1aki3-14" value="&lt;span style=&quot;font-size: 13px;&quot;&gt;Play again&lt;/span&gt;" style="edgeLabel;html=1;align=center;verticalAlign=middle;resizable=0;points=[];" parent="Giim6YfqNWXIDRQ1aki3-13" vertex="1" connectable="0">
          <mxGeometry x="0.048" y="-1" relative="1" as="geometry">
            <mxPoint as="offset" />
          </mxGeometry>
        </mxCell>
        <mxCell id="Giim6YfqNWXIDRQ1aki3-16" value="" style="endArrow=none;html=1;rounded=0;exitX=0.5;exitY=0;exitDx=0;exitDy=0;entryX=0.5;entryY=1;entryDx=0;entryDy=0;" parent="1" source="Giim6YfqNWXIDRQ1aki3-17" edge="1">
          <mxGeometry width="50" height="50" relative="1" as="geometry">
            <mxPoint x="1320" y="850" as="sourcePoint" />
            <mxPoint x="140" y="890" as="targetPoint" />
          </mxGeometry>
        </mxCell>
        <mxCell id="Giim6YfqNWXIDRQ1aki3-17" value="&lt;font style=&quot;font-size: 14px;&quot;&gt;Check category valditity&lt;/font&gt;" style="rounded=0;whiteSpace=wrap;html=1;" parent="1" vertex="1">
          <mxGeometry x="450" y="1120" width="160" height="100" as="geometry" />
        </mxCell>
        <mxCell id="Giim6YfqNWXIDRQ1aki3-18" value="" style="endArrow=classic;html=1;rounded=0;curved=0;startArrow=oval;startFill=0;" parent="1" edge="1">
          <mxGeometry width="50" height="50" relative="1" as="geometry">
            <mxPoint x="180" y="790" as="sourcePoint" />
            <mxPoint x="250" y="690" as="targetPoint" />
          </mxGeometry>
        </mxCell>
        <mxCell id="Giim6YfqNWXIDRQ1aki3-19" value="&lt;span style=&quot;font-size: 13px;&quot;&gt;chosen&amp;nbsp;&lt;/span&gt;&lt;div&gt;&lt;span style=&quot;font-size: 13px;&quot;&gt;category&lt;/span&gt;&lt;/div&gt;" style="edgeLabel;html=1;align=center;verticalAlign=middle;resizable=0;points=[];" parent="Giim6YfqNWXIDRQ1aki3-18" vertex="1" connectable="0">
          <mxGeometry x="0.048" y="-1" relative="1" as="geometry">
            <mxPoint as="offset" />
          </mxGeometry>
        </mxCell>
        <mxCell id="Giim6YfqNWXIDRQ1aki3-21" value="" style="endArrow=classic;html=1;rounded=0;curved=0;startArrow=oval;startFill=0;" parent="1" edge="1">
          <mxGeometry width="50" height="50" relative="1" as="geometry">
            <mxPoint x="330" y="1030" as="sourcePoint" />
            <mxPoint x="420" y="1090" as="targetPoint" />
          </mxGeometry>
        </mxCell>
        <mxCell id="Giim6YfqNWXIDRQ1aki3-22" value="&lt;span style=&quot;font-size: 13px;&quot;&gt;chosen&amp;nbsp;&lt;/span&gt;&lt;div&gt;&lt;span style=&quot;font-size: 13px;&quot;&gt;category&lt;/span&gt;&lt;/div&gt;" style="edgeLabel;html=1;align=center;verticalAlign=middle;resizable=0;points=[];" parent="Giim6YfqNWXIDRQ1aki3-21" vertex="1" connectable="0">
          <mxGeometry x="0.048" y="-1" relative="1" as="geometry">
            <mxPoint as="offset" />
          </mxGeometry>
        </mxCell>
        <mxCell id="Giim6YfqNWXIDRQ1aki3-23" value="" style="endArrow=none;html=1;rounded=0;entryX=0.5;entryY=1;entryDx=0;entryDy=0;exitX=0.5;exitY=0;exitDx=0;exitDy=0;fontStyle=1;" parent="1" source="Giim6YfqNWXIDRQ1aki3-24" target="Giim6YfqNWXIDRQ1aki3-17" edge="1">
          <mxGeometry width="50" height="50" relative="1" as="geometry">
            <mxPoint x="1245" y="1190" as="sourcePoint" />
            <mxPoint x="300" y="1110" as="targetPoint" />
          </mxGeometry>
        </mxCell>
        <mxCell id="Giim6YfqNWXIDRQ1aki3-24" value="&lt;font style=&quot;font-size: 14px;&quot;&gt;Add chosen category into played category&lt;/font&gt;" style="rounded=0;whiteSpace=wrap;html=1;fontStyle=1" parent="1" vertex="1">
          <mxGeometry x="575" y="1400" width="160" height="100" as="geometry" />
        </mxCell>
        <mxCell id="Giim6YfqNWXIDRQ1aki3-26" value="" style="endArrow=classic;html=1;rounded=0;curved=0;startArrow=oval;startFill=0;" parent="1" edge="1">
          <mxGeometry width="50" height="50" relative="1" as="geometry">
            <mxPoint x="520" y="1240" as="sourcePoint" />
            <mxPoint x="560" y="1300" as="targetPoint" />
          </mxGeometry>
        </mxCell>
        <mxCell id="Giim6YfqNWXIDRQ1aki3-27" value="&lt;span style=&quot;font-size: 13px;&quot;&gt;chosen&amp;nbsp;&lt;/span&gt;&lt;div&gt;&lt;span style=&quot;font-size: 13px;&quot;&gt;category&lt;/span&gt;&lt;/div&gt;" style="edgeLabel;html=1;align=center;verticalAlign=middle;resizable=0;points=[];" parent="Giim6YfqNWXIDRQ1aki3-26" vertex="1" connectable="0">
          <mxGeometry x="0.048" y="-1" relative="1" as="geometry">
            <mxPoint as="offset" />
          </mxGeometry>
        </mxCell>
        <mxCell id="Giim6YfqNWXIDRQ1aki3-28" value="" style="endArrow=classic;html=1;rounded=0;curved=0;startArrow=oval;startFill=0;" parent="1" edge="1">
          <mxGeometry width="50" height="50" relative="1" as="geometry">
            <mxPoint x="570" y="1320" as="sourcePoint" />
            <mxPoint x="620" y="1388" as="targetPoint" />
          </mxGeometry>
        </mxCell>
        <mxCell id="Giim6YfqNWXIDRQ1aki3-29" value="&lt;font style=&quot;font-size: 13px;&quot;&gt;played&lt;/font&gt;&lt;div&gt;&lt;font style=&quot;font-size: 13px;&quot;&gt;category&lt;/font&gt;&lt;/div&gt;" style="edgeLabel;html=1;align=center;verticalAlign=middle;resizable=0;points=[];" parent="Giim6YfqNWXIDRQ1aki3-28" vertex="1" connectable="0">
          <mxGeometry x="0.048" y="-1" relative="1" as="geometry">
            <mxPoint as="offset" />
          </mxGeometry>
        </mxCell>
        <mxCell id="Giim6YfqNWXIDRQ1aki3-30" value="" style="endArrow=classic;html=1;rounded=0;curved=0;startArrow=oval;startFill=0;" parent="1" edge="1">
          <mxGeometry width="50" height="50" relative="1" as="geometry">
            <mxPoint x="680" y="1380" as="sourcePoint" />
            <mxPoint x="630" y="1310" as="targetPoint" />
          </mxGeometry>
        </mxCell>
        <mxCell id="Giim6YfqNWXIDRQ1aki3-31" value="&lt;span style=&quot;font-size: 13px;&quot;&gt;chosen&amp;nbsp;&lt;/span&gt;&lt;div&gt;&lt;span style=&quot;font-size: 13px;&quot;&gt;category&lt;/span&gt;&lt;/div&gt;" style="edgeLabel;html=1;align=center;verticalAlign=middle;resizable=0;points=[];" parent="Giim6YfqNWXIDRQ1aki3-30" vertex="1" connectable="0">
          <mxGeometry x="0.048" y="-1" relative="1" as="geometry">
            <mxPoint as="offset" />
          </mxGeometry>
        </mxCell>
        <mxCell id="Giim6YfqNWXIDRQ1aki3-32" value="" style="endArrow=classic;html=1;rounded=0;curved=0;startArrow=oval;startFill=0;" parent="1" edge="1">
          <mxGeometry width="50" height="50" relative="1" as="geometry">
            <mxPoint x="610" y="1300" as="sourcePoint" />
            <mxPoint x="560" y="1230" as="targetPoint" />
          </mxGeometry>
        </mxCell>
        <mxCell id="Giim6YfqNWXIDRQ1aki3-33" value="&lt;font style=&quot;font-size: 13px;&quot;&gt;played&lt;/font&gt;&lt;div&gt;&lt;font style=&quot;font-size: 13px;&quot;&gt;category&lt;/font&gt;&lt;/div&gt;" style="edgeLabel;html=1;align=center;verticalAlign=middle;resizable=0;points=[];" parent="Giim6YfqNWXIDRQ1aki3-32" vertex="1" connectable="0">
          <mxGeometry x="0.048" y="-1" relative="1" as="geometry">
            <mxPoint as="offset" />
          </mxGeometry>
        </mxCell>
        <mxCell id="Giim6YfqNWXIDRQ1aki3-34" value="" style="endArrow=classic;html=1;rounded=0;curved=0;startArrow=oval;startFill=0;" parent="1" edge="1">
          <mxGeometry width="50" height="50" relative="1" as="geometry">
            <mxPoint x="260" y="680" as="sourcePoint" />
            <mxPoint x="330" y="590" as="targetPoint" />
          </mxGeometry>
        </mxCell>
        <mxCell id="Giim6YfqNWXIDRQ1aki3-35" value="&lt;font style=&quot;font-size: 13px;&quot;&gt;played&lt;/font&gt;&lt;div&gt;&lt;font style=&quot;font-size: 13px;&quot;&gt;category&lt;/font&gt;&lt;/div&gt;" style="edgeLabel;html=1;align=center;verticalAlign=middle;resizable=0;points=[];" parent="Giim6YfqNWXIDRQ1aki3-34" vertex="1" connectable="0">
          <mxGeometry x="0.048" y="-1" relative="1" as="geometry">
            <mxPoint as="offset" />
          </mxGeometry>
        </mxCell>
        <mxCell id="Giim6YfqNWXIDRQ1aki3-36" value="" style="endArrow=classic;html=1;rounded=0;curved=0;startArrow=oval;startFill=0;" parent="1" edge="1">
          <mxGeometry width="50" height="50" relative="1" as="geometry">
            <mxPoint x="370" y="1000" as="sourcePoint" />
            <mxPoint x="280" y="950" as="targetPoint" />
          </mxGeometry>
        </mxCell>
        <mxCell id="Giim6YfqNWXIDRQ1aki3-37" value="&lt;font style=&quot;font-size: 13px;&quot;&gt;played&lt;/font&gt;&lt;div&gt;&lt;font style=&quot;font-size: 13px;&quot;&gt;category&lt;/font&gt;&lt;/div&gt;" style="edgeLabel;html=1;align=center;verticalAlign=middle;resizable=0;points=[];" parent="Giim6YfqNWXIDRQ1aki3-36" vertex="1" connectable="0">
          <mxGeometry x="0.048" y="-1" relative="1" as="geometry">
            <mxPoint as="offset" />
          </mxGeometry>
        </mxCell>
        <mxCell id="Giim6YfqNWXIDRQ1aki3-38" value="" style="endArrow=classic;html=1;rounded=0;curved=0;startArrow=oval;startFill=0;" parent="1" edge="1">
          <mxGeometry width="50" height="50" relative="1" as="geometry">
            <mxPoint x="510" y="1090" as="sourcePoint" />
            <mxPoint x="390" y="1010" as="targetPoint" />
          </mxGeometry>
        </mxCell>
        <mxCell id="Giim6YfqNWXIDRQ1aki3-39" value="&lt;span style=&quot;font-size: 13px;&quot;&gt;chosen&amp;nbsp;&lt;/span&gt;&lt;div&gt;&lt;span style=&quot;font-size: 13px;&quot;&gt;category&lt;/span&gt;&lt;/div&gt;" style="edgeLabel;html=1;align=center;verticalAlign=middle;resizable=0;points=[];" parent="Giim6YfqNWXIDRQ1aki3-38" vertex="1" connectable="0">
          <mxGeometry x="0.048" y="-1" relative="1" as="geometry">
            <mxPoint as="offset" />
          </mxGeometry>
        </mxCell>
        <mxCell id="Giim6YfqNWXIDRQ1aki3-40" value="" style="endArrow=classic;html=1;rounded=0;curved=0;startArrow=oval;startFill=1;" parent="1" edge="1">
          <mxGeometry width="50" height="50" relative="1" as="geometry">
            <mxPoint x="350" y="570" as="sourcePoint" />
            <mxPoint x="400" y="500" as="targetPoint" />
          </mxGeometry>
        </mxCell>
        <mxCell id="Giim6YfqNWXIDRQ1aki3-41" value="&lt;span style=&quot;font-size: 13px;&quot;&gt;Play again&lt;/span&gt;" style="edgeLabel;html=1;align=center;verticalAlign=middle;resizable=0;points=[];" parent="Giim6YfqNWXIDRQ1aki3-40" vertex="1" connectable="0">
          <mxGeometry x="0.048" y="-1" relative="1" as="geometry">
            <mxPoint as="offset" />
          </mxGeometry>
        </mxCell>
        <mxCell id="Giim6YfqNWXIDRQ1aki3-42" value="" style="endArrow=classic;startArrow=classic;html=1;rounded=0;edgeStyle=orthogonalEdgeStyle;curved=1;" parent="1" edge="1">
          <mxGeometry width="50" height="50" relative="1" as="geometry">
            <mxPoint x="330" y="188" as="sourcePoint" />
            <mxPoint x="519.97" y="190" as="targetPoint" />
            <Array as="points">
              <mxPoint x="310" y="188" />
              <mxPoint x="310" y="240" />
              <mxPoint x="540" y="240" />
              <mxPoint x="540" y="190" />
            </Array>
          </mxGeometry>
        </mxCell>
        <mxCell id="Giim6YfqNWXIDRQ1aki3-55" value="Play again is true" style="edgeLabel;html=1;align=center;verticalAlign=middle;resizable=0;points=[];" parent="Giim6YfqNWXIDRQ1aki3-42" vertex="1" connectable="0">
          <mxGeometry x="0.0129" y="3" relative="1" as="geometry">
            <mxPoint as="offset" />
          </mxGeometry>
        </mxCell>
        <mxCell id="Giim6YfqNWXIDRQ1aki3-44" value="" style="endArrow=none;html=1;rounded=0;exitX=0.5;exitY=0;exitDx=0;exitDy=0;entryX=0.5;entryY=1;entryDx=0;entryDy=0;" parent="1" source="sXabFZIURpEES0_cBn82-18" target="Giim6YfqNWXIDRQ1aki3-56" edge="1">
          <mxGeometry width="50" height="50" relative="1" as="geometry">
            <mxPoint x="60" y="540" as="sourcePoint" />
            <mxPoint x="340" y="470" as="targetPoint" />
          </mxGeometry>
        </mxCell>
        <mxCell id="Giim6YfqNWXIDRQ1aki3-45" value="&lt;font style=&quot;font-size: 14px;&quot;&gt;print questions&lt;/font&gt;" style="rounded=0;whiteSpace=wrap;html=1;" parent="1" vertex="1">
          <mxGeometry x="900" y="800" width="180" height="90" as="geometry" />
        </mxCell>
        <mxCell id="Giim6YfqNWXIDRQ1aki3-46" value="" style="endArrow=classic;html=1;rounded=0;curved=0;startArrow=oval;startFill=0;" parent="1" edge="1">
          <mxGeometry width="50" height="50" relative="1" as="geometry">
            <mxPoint x="590" y="580" as="sourcePoint" />
            <mxPoint x="660" y="620" as="targetPoint" />
          </mxGeometry>
        </mxCell>
        <mxCell id="Giim6YfqNWXIDRQ1aki3-47" value="&lt;font style=&quot;font-size: 13px;&quot;&gt;score&lt;/font&gt;" style="edgeLabel;html=1;align=center;verticalAlign=middle;resizable=0;points=[];" parent="Giim6YfqNWXIDRQ1aki3-46" vertex="1" connectable="0">
          <mxGeometry x="0.048" y="-1" relative="1" as="geometry">
            <mxPoint as="offset" />
          </mxGeometry>
        </mxCell>
        <mxCell id="Giim6YfqNWXIDRQ1aki3-48" value="" style="endArrow=classic;html=1;rounded=0;curved=0;startArrow=oval;startFill=0;" parent="1" edge="1">
          <mxGeometry width="50" height="50" relative="1" as="geometry">
            <mxPoint x="850" y="740" as="sourcePoint" />
            <mxPoint x="940" y="790" as="targetPoint" />
          </mxGeometry>
        </mxCell>
        <mxCell id="Giim6YfqNWXIDRQ1aki3-49" value="&lt;font style=&quot;font-size: 13px;&quot;&gt;imported&amp;nbsp;&lt;/font&gt;&lt;div&gt;&lt;font style=&quot;font-size: 13px;&quot;&gt;question&lt;/font&gt;&lt;/div&gt;" style="edgeLabel;html=1;align=center;verticalAlign=middle;resizable=0;points=[];" parent="Giim6YfqNWXIDRQ1aki3-48" vertex="1" connectable="0">
          <mxGeometry x="0.048" y="-1" relative="1" as="geometry">
            <mxPoint as="offset" />
          </mxGeometry>
        </mxCell>
        <mxCell id="Giim6YfqNWXIDRQ1aki3-50" value="" style="endArrow=classic;html=1;rounded=0;curved=0;startArrow=oval;startFill=0;" parent="1" edge="1">
          <mxGeometry width="50" height="50" relative="1" as="geometry">
            <mxPoint x="750" y="680" as="sourcePoint" />
            <mxPoint x="840" y="730" as="targetPoint" />
          </mxGeometry>
        </mxCell>
        <mxCell id="Giim6YfqNWXIDRQ1aki3-51" value="&lt;font style=&quot;font-size: 13px;&quot;&gt;played&lt;/font&gt;&lt;div&gt;&lt;font style=&quot;font-size: 13px;&quot;&gt;category&lt;/font&gt;&lt;/div&gt;" style="edgeLabel;html=1;align=center;verticalAlign=middle;resizable=0;points=[];" parent="Giim6YfqNWXIDRQ1aki3-50" vertex="1" connectable="0">
          <mxGeometry x="0.048" y="-1" relative="1" as="geometry">
            <mxPoint as="offset" />
          </mxGeometry>
        </mxCell>
        <mxCell id="Giim6YfqNWXIDRQ1aki3-52" value="" style="endArrow=classic;html=1;rounded=0;curved=0;startArrow=oval;startFill=0;" parent="1" edge="1">
          <mxGeometry width="50" height="50" relative="1" as="geometry">
            <mxPoint x="670" y="630" as="sourcePoint" />
            <mxPoint x="740" y="670" as="targetPoint" />
          </mxGeometry>
        </mxCell>
        <mxCell id="Giim6YfqNWXIDRQ1aki3-53" value="&lt;span style=&quot;font-size: 13px;&quot;&gt;chosen&amp;nbsp;&lt;/span&gt;&lt;div&gt;&lt;span style=&quot;font-size: 13px;&quot;&gt;category&lt;/span&gt;&lt;/div&gt;" style="edgeLabel;html=1;align=center;verticalAlign=middle;resizable=0;points=[];" parent="Giim6YfqNWXIDRQ1aki3-52" vertex="1" connectable="0">
          <mxGeometry x="0.048" y="-1" relative="1" as="geometry">
            <mxPoint as="offset" />
          </mxGeometry>
        </mxCell>
        <mxCell id="Giim6YfqNWXIDRQ1aki3-54" value="" style="endArrow=none;html=1;rounded=0;exitX=0.5;exitY=0;exitDx=0;exitDy=0;entryX=0.5;entryY=1;entryDx=0;entryDy=0;" parent="1" source="Giim6YfqNWXIDRQ1aki3-45" target="Giim6YfqNWXIDRQ1aki3-56" edge="1">
          <mxGeometry width="50" height="50" relative="1" as="geometry">
            <mxPoint x="780" y="555" as="sourcePoint" />
            <mxPoint x="1140" y="220" as="targetPoint" />
          </mxGeometry>
        </mxCell>
        <mxCell id="Giim6YfqNWXIDRQ1aki3-56" value="&lt;b&gt;Run quiz section&lt;/b&gt;&lt;div&gt;(this function does not exist in code,&lt;br&gt;created for looping purposes)&lt;/div&gt;" style="rounded=0;whiteSpace=wrap;html=1;" parent="1" vertex="1">
          <mxGeometry x="320" y="340" width="195" height="110" as="geometry" />
        </mxCell>
        <mxCell id="Giim6YfqNWXIDRQ1aki3-58" value="" style="endArrow=classic;html=1;rounded=0;curved=0;startArrow=oval;startFill=1;" parent="1" edge="1">
          <mxGeometry width="50" height="50" relative="1" as="geometry">
            <mxPoint x="430" y="320" as="sourcePoint" />
            <mxPoint x="430" y="250" as="targetPoint" />
          </mxGeometry>
        </mxCell>
        <mxCell id="Giim6YfqNWXIDRQ1aki3-59" value="&lt;span style=&quot;font-size: 13px;&quot;&gt;Play again&lt;/span&gt;" style="edgeLabel;html=1;align=center;verticalAlign=middle;resizable=0;points=[];" parent="Giim6YfqNWXIDRQ1aki3-58" vertex="1" connectable="0">
          <mxGeometry x="0.048" y="-1" relative="1" as="geometry">
            <mxPoint as="offset" />
          </mxGeometry>
        </mxCell>
        <mxCell id="Giim6YfqNWXIDRQ1aki3-60" value="" style="endArrow=classic;startArrow=classic;html=1;rounded=0;edgeStyle=orthogonalEdgeStyle;curved=1;" parent="1" edge="1">
          <mxGeometry width="50" height="50" relative="1" as="geometry">
            <mxPoint x="322.5" y="430" as="sourcePoint" />
            <mxPoint x="512.47" y="432" as="targetPoint" />
            <Array as="points">
              <mxPoint x="302.5" y="430" />
              <mxPoint x="302.5" y="482" />
              <mxPoint x="532.5" y="482" />
              <mxPoint x="532.5" y="432" />
            </Array>
          </mxGeometry>
        </mxCell>
        <mxCell id="Giim6YfqNWXIDRQ1aki3-61" value="Play again is true" style="edgeLabel;html=1;align=center;verticalAlign=middle;resizable=0;points=[];" parent="Giim6YfqNWXIDRQ1aki3-60" vertex="1" connectable="0">
          <mxGeometry x="0.0129" y="3" relative="1" as="geometry">
            <mxPoint as="offset" />
          </mxGeometry>
        </mxCell>
        <mxCell id="Giim6YfqNWXIDRQ1aki3-64" value="" style="endArrow=none;html=1;rounded=0;exitX=0.5;exitY=0;exitDx=0;exitDy=0;entryX=0.5;entryY=1;entryDx=0;entryDy=0;" parent="1" source="Giim6YfqNWXIDRQ1aki3-43" target="sXabFZIURpEES0_cBn82-1" edge="1">
          <mxGeometry width="50" height="50" relative="1" as="geometry">
            <mxPoint x="-350" y="340" as="sourcePoint" />
            <mxPoint x="430" y="220" as="targetPoint" />
          </mxGeometry>
        </mxCell>
        <mxCell id="Giim6YfqNWXIDRQ1aki3-65" value="" style="endArrow=none;html=1;rounded=0;exitX=0.5;exitY=0;exitDx=0;exitDy=0;entryX=0.5;entryY=1;entryDx=0;entryDy=0;" parent="1" source="Giim6YfqNWXIDRQ1aki3-56" target="Giim6YfqNWXIDRQ1aki3-43" edge="1">
          <mxGeometry width="50" height="50" relative="1" as="geometry">
            <mxPoint x="418" y="340" as="sourcePoint" />
            <mxPoint x="425" y="200" as="targetPoint" />
          </mxGeometry>
        </mxCell>
        <mxCell id="Giim6YfqNWXIDRQ1aki3-43" value="" style="whiteSpace=wrap;html=1;aspect=fixed;" parent="1" vertex="1">
          <mxGeometry x="423" y="200" width="5" height="5" as="geometry" />
        </mxCell>
        <mxCell id="Giim6YfqNWXIDRQ1aki3-67" value="" style="endArrow=classic;html=1;rounded=0;curved=0;startArrow=oval;startFill=0;" parent="1" edge="1">
          <mxGeometry width="50" height="50" relative="1" as="geometry">
            <mxPoint x="515" y="530" as="sourcePoint" />
            <mxPoint x="585" y="570" as="targetPoint" />
          </mxGeometry>
        </mxCell>
        <mxCell id="Giim6YfqNWXIDRQ1aki3-68" value="&lt;font style=&quot;font-size: 13px;&quot;&gt;name&lt;/font&gt;" style="edgeLabel;html=1;align=center;verticalAlign=middle;resizable=0;points=[];" parent="Giim6YfqNWXIDRQ1aki3-67" vertex="1" connectable="0">
          <mxGeometry x="0.048" y="-1" relative="1" as="geometry">
            <mxPoint as="offset" />
          </mxGeometry>
        </mxCell>
        <mxCell id="Giim6YfqNWXIDRQ1aki3-70" value="" style="endArrow=classic;html=1;rounded=0;curved=0;startArrow=oval;startFill=0;" parent="1" edge="1">
          <mxGeometry width="50" height="50" relative="1" as="geometry">
            <mxPoint x="440" y="500" as="sourcePoint" />
            <mxPoint x="510" y="530" as="targetPoint" />
          </mxGeometry>
        </mxCell>
        <mxCell id="Giim6YfqNWXIDRQ1aki3-71" value="&lt;font style=&quot;font-size: 13px;&quot;&gt;section&lt;/font&gt;&lt;div&gt;&lt;font style=&quot;font-size: 13px;&quot;&gt;score&lt;/font&gt;&lt;/div&gt;" style="edgeLabel;html=1;align=center;verticalAlign=middle;resizable=0;points=[];" parent="Giim6YfqNWXIDRQ1aki3-70" vertex="1" connectable="0">
          <mxGeometry x="0.048" y="-1" relative="1" as="geometry">
            <mxPoint as="offset" />
          </mxGeometry>
        </mxCell>
        <mxCell id="Giim6YfqNWXIDRQ1aki3-72" value="" style="endArrow=none;html=1;rounded=0;exitX=0.5;exitY=0;exitDx=0;exitDy=0;entryX=0.5;entryY=1;entryDx=0;entryDy=0;" parent="1" source="Giim6YfqNWXIDRQ1aki3-73" target="Giim6YfqNWXIDRQ1aki3-45" edge="1">
          <mxGeometry width="50" height="50" relative="1" as="geometry">
            <mxPoint x="1320" y="910" as="sourcePoint" />
            <mxPoint x="1010" y="920" as="targetPoint" />
          </mxGeometry>
        </mxCell>
        <mxCell id="Giim6YfqNWXIDRQ1aki3-73" value="&lt;font style=&quot;font-size: 14px;&quot;&gt;Display questions and choices based on chosen category&lt;/font&gt;" style="rounded=0;whiteSpace=wrap;html=1;" parent="1" vertex="1">
          <mxGeometry x="670" y="1120" width="160" height="100" as="geometry" />
        </mxCell>
        <mxCell id="Giim6YfqNWXIDRQ1aki3-74" value="" style="endArrow=classic;html=1;rounded=0;curved=0;startArrow=oval;startFill=0;" parent="1" edge="1">
          <mxGeometry width="50" height="50" relative="1" as="geometry">
            <mxPoint x="940" y="910" as="sourcePoint" />
            <mxPoint x="870" y="980" as="targetPoint" />
          </mxGeometry>
        </mxCell>
        <mxCell id="Giim6YfqNWXIDRQ1aki3-75" value="&lt;span style=&quot;font-size: 13px;&quot;&gt;chosen&amp;nbsp;&lt;/span&gt;&lt;div&gt;&lt;span style=&quot;font-size: 13px;&quot;&gt;category&lt;/span&gt;&lt;/div&gt;" style="edgeLabel;html=1;align=center;verticalAlign=middle;resizable=0;points=[];" parent="Giim6YfqNWXIDRQ1aki3-74" vertex="1" connectable="0">
          <mxGeometry x="0.048" y="-1" relative="1" as="geometry">
            <mxPoint as="offset" />
          </mxGeometry>
        </mxCell>
        <mxCell id="Giim6YfqNWXIDRQ1aki3-76" value="" style="endArrow=classic;html=1;rounded=0;curved=0;startArrow=oval;startFill=0;" parent="1" edge="1">
          <mxGeometry width="50" height="50" relative="1" as="geometry">
            <mxPoint x="850" y="1000" as="sourcePoint" />
            <mxPoint x="730" y="1100" as="targetPoint" />
          </mxGeometry>
        </mxCell>
        <mxCell id="Giim6YfqNWXIDRQ1aki3-77" value="&lt;font style=&quot;font-size: 13px;&quot;&gt;&quot;Question&quot; and&amp;nbsp;&lt;/font&gt;&lt;div&gt;&lt;font style=&quot;font-size: 13px;&quot;&gt;&quot;Choices&quot; in&amp;nbsp;&lt;/font&gt;&lt;/div&gt;&lt;div&gt;&lt;font style=&quot;font-size: 13px;&quot;&gt;imported&amp;nbsp;&lt;/font&gt;&lt;span style=&quot;background-color: light-dark(#ffffff, var(--ge-dark-color, #121212)); color: light-dark(rgb(0, 0, 0), rgb(255, 255, 255)); font-size: 13px;&quot;&gt;question&lt;/span&gt;&lt;/div&gt;" style="edgeLabel;html=1;align=center;verticalAlign=middle;resizable=0;points=[];" parent="Giim6YfqNWXIDRQ1aki3-76" vertex="1" connectable="0">
          <mxGeometry x="0.048" y="-1" relative="1" as="geometry">
            <mxPoint as="offset" />
          </mxGeometry>
        </mxCell>
        <mxCell id="Giim6YfqNWXIDRQ1aki3-78" value="" style="endArrow=none;html=1;rounded=0;exitX=0.5;exitY=0;exitDx=0;exitDy=0;entryX=0.5;entryY=1;entryDx=0;entryDy=0;" parent="1" source="Giim6YfqNWXIDRQ1aki3-79" target="Giim6YfqNWXIDRQ1aki3-45" edge="1">
          <mxGeometry width="50" height="50" relative="1" as="geometry">
            <mxPoint x="1550" y="910" as="sourcePoint" />
            <mxPoint x="990" y="860" as="targetPoint" />
          </mxGeometry>
        </mxCell>
        <mxCell id="Giim6YfqNWXIDRQ1aki3-79" value="&lt;font style=&quot;font-size: 14px;&quot;&gt;get user input/answer&lt;/font&gt;" style="rounded=0;whiteSpace=wrap;html=1;" parent="1" vertex="1">
          <mxGeometry x="860" y="1120" width="160" height="100" as="geometry" />
        </mxCell>
        <mxCell id="Giim6YfqNWXIDRQ1aki3-80" value="" style="endArrow=classic;html=1;rounded=0;curved=0;startArrow=oval;startFill=0;" parent="1" edge="1">
          <mxGeometry width="50" height="50" relative="1" as="geometry">
            <mxPoint x="970" y="1060" as="sourcePoint" />
            <mxPoint x="990" y="960" as="targetPoint" />
          </mxGeometry>
        </mxCell>
        <mxCell id="Giim6YfqNWXIDRQ1aki3-81" value="&lt;span style=&quot;font-size: 13px;&quot;&gt;user&lt;/span&gt;&lt;div&gt;&lt;span style=&quot;font-size: 13px;&quot;&gt;input&lt;/span&gt;&lt;/div&gt;" style="edgeLabel;html=1;align=center;verticalAlign=middle;resizable=0;points=[];" parent="Giim6YfqNWXIDRQ1aki3-80" vertex="1" connectable="0">
          <mxGeometry x="0.048" y="-1" relative="1" as="geometry">
            <mxPoint as="offset" />
          </mxGeometry>
        </mxCell>
        <mxCell id="Giim6YfqNWXIDRQ1aki3-82" value="" style="endArrow=none;html=1;rounded=0;exitX=0.5;exitY=0;exitDx=0;exitDy=0;entryX=0.5;entryY=1;entryDx=0;entryDy=0;" parent="1" source="Giim6YfqNWXIDRQ1aki3-83" target="Giim6YfqNWXIDRQ1aki3-45" edge="1">
          <mxGeometry width="50" height="50" relative="1" as="geometry">
            <mxPoint x="1765" y="910" as="sourcePoint" />
            <mxPoint x="1205" y="890" as="targetPoint" />
          </mxGeometry>
        </mxCell>
        <mxCell id="Giim6YfqNWXIDRQ1aki3-83" value="&lt;font style=&quot;font-size: 14px;&quot;&gt;check user answer&lt;/font&gt;" style="rounded=0;whiteSpace=wrap;html=1;" parent="1" vertex="1">
          <mxGeometry x="1275" y="1120" width="160" height="100" as="geometry" />
        </mxCell>
        <mxCell id="Giim6YfqNWXIDRQ1aki3-84" value="" style="endArrow=classic;html=1;rounded=0;curved=0;startArrow=oval;startFill=0;" parent="1" edge="1">
          <mxGeometry width="50" height="50" relative="1" as="geometry">
            <mxPoint x="1090" y="970" as="sourcePoint" />
            <mxPoint x="1150" y="1010" as="targetPoint" />
          </mxGeometry>
        </mxCell>
        <mxCell id="Giim6YfqNWXIDRQ1aki3-85" value="&lt;span style=&quot;font-size: 13px;&quot;&gt;user input&lt;/span&gt;" style="edgeLabel;html=1;align=center;verticalAlign=middle;resizable=0;points=[];" parent="Giim6YfqNWXIDRQ1aki3-84" vertex="1" connectable="0">
          <mxGeometry x="0.048" y="-1" relative="1" as="geometry">
            <mxPoint as="offset" />
          </mxGeometry>
        </mxCell>
        <mxCell id="Giim6YfqNWXIDRQ1aki3-86" value="" style="endArrow=classic;html=1;rounded=0;curved=0;startArrow=oval;startFill=0;" parent="1" edge="1">
          <mxGeometry width="50" height="50" relative="1" as="geometry">
            <mxPoint x="1060" y="1020" as="sourcePoint" />
            <mxPoint x="1110" y="1100" as="targetPoint" />
          </mxGeometry>
        </mxCell>
        <mxCell id="Giim6YfqNWXIDRQ1aki3-87" value="&lt;span style=&quot;font-size: 13px;&quot;&gt;&quot;hint&quot;&amp;nbsp;&lt;/span&gt;&lt;span style=&quot;background-color: light-dark(#ffffff, var(--ge-dark-color, #121212)); color: light-dark(rgb(0, 0, 0), rgb(255, 255, 255)); font-size: 13px;&quot;&gt;in&amp;nbsp;&lt;/span&gt;&lt;div&gt;&lt;span style=&quot;color: light-dark(rgb(0, 0, 0), rgb(255, 255, 255)); font-size: 13px; background-color: light-dark(#ffffff, var(--ge-dark-color, #121212));&quot;&gt;imported question&lt;/span&gt;&lt;/div&gt;" style="edgeLabel;html=1;align=center;verticalAlign=middle;resizable=0;points=[];" parent="Giim6YfqNWXIDRQ1aki3-86" vertex="1" connectable="0">
          <mxGeometry x="0.048" y="-1" relative="1" as="geometry">
            <mxPoint as="offset" />
          </mxGeometry>
        </mxCell>
        <mxCell id="Giim6YfqNWXIDRQ1aki3-92" value="" style="endArrow=classic;html=1;rounded=0;curved=0;startArrow=oval;startFill=0;" parent="1" edge="1">
          <mxGeometry width="50" height="50" relative="1" as="geometry">
            <mxPoint x="1275" y="1060" as="sourcePoint" />
            <mxPoint x="1145" y="970" as="targetPoint" />
          </mxGeometry>
        </mxCell>
        <mxCell id="Giim6YfqNWXIDRQ1aki3-93" value="&lt;span style=&quot;font-size: 13px;&quot;&gt;result&lt;/span&gt;" style="edgeLabel;html=1;align=center;verticalAlign=middle;resizable=0;points=[];" parent="Giim6YfqNWXIDRQ1aki3-92" vertex="1" connectable="0">
          <mxGeometry x="0.048" y="-1" relative="1" as="geometry">
            <mxPoint as="offset" />
          </mxGeometry>
        </mxCell>
        <mxCell id="Giim6YfqNWXIDRQ1aki3-95" value="" style="endArrow=none;html=1;rounded=0;exitX=0.5;exitY=0;exitDx=0;exitDy=0;entryX=0.5;entryY=1;entryDx=0;entryDy=0;" parent="1" source="Giim6YfqNWXIDRQ1aki3-96" target="Giim6YfqNWXIDRQ1aki3-45" edge="1">
          <mxGeometry width="50" height="50" relative="1" as="geometry">
            <mxPoint x="1995" y="910" as="sourcePoint" />
            <mxPoint x="1220" y="890" as="targetPoint" />
          </mxGeometry>
        </mxCell>
        <mxCell id="Giim6YfqNWXIDRQ1aki3-96" value="&lt;font style=&quot;font-size: 14px;&quot;&gt;apply and display&amp;nbsp;&lt;/font&gt;&lt;span style=&quot;font-size: 14px; background-color: transparent; color: light-dark(rgb(0, 0, 0), rgb(255, 255, 255));&quot;&gt;consenquences&lt;/span&gt;&lt;div&gt;&lt;font style=&quot;font-size: 14px;&quot;&gt;(depending on user input)&lt;/font&gt;&lt;/div&gt;" style="rounded=0;whiteSpace=wrap;html=1;" parent="1" vertex="1">
          <mxGeometry x="1500" y="1110" width="160" height="100" as="geometry" />
        </mxCell>
        <mxCell id="Giim6YfqNWXIDRQ1aki3-97" value="" style="endArrow=classic;html=1;rounded=0;curved=0;startArrow=oval;startFill=0;" parent="1" edge="1">
          <mxGeometry width="50" height="50" relative="1" as="geometry">
            <mxPoint x="1190" y="970" as="sourcePoint" />
            <mxPoint x="1250" y="1000" as="targetPoint" />
          </mxGeometry>
        </mxCell>
        <mxCell id="Giim6YfqNWXIDRQ1aki3-98" value="&lt;span style=&quot;font-size: 13px;&quot;&gt;result&lt;/span&gt;" style="edgeLabel;html=1;align=center;verticalAlign=middle;resizable=0;points=[];" parent="Giim6YfqNWXIDRQ1aki3-97" vertex="1" connectable="0">
          <mxGeometry x="0.048" y="-1" relative="1" as="geometry">
            <mxPoint as="offset" />
          </mxGeometry>
        </mxCell>
        <mxCell id="Giim6YfqNWXIDRQ1aki3-99" value="" style="endArrow=classic;html=1;rounded=0;curved=0;startArrow=oval;startFill=0;" parent="1" edge="1">
          <mxGeometry width="50" height="50" relative="1" as="geometry">
            <mxPoint x="1270" y="1010" as="sourcePoint" />
            <mxPoint x="1400" y="1060" as="targetPoint" />
          </mxGeometry>
        </mxCell>
        <mxCell id="Giim6YfqNWXIDRQ1aki3-100" value="&lt;span style=&quot;font-size: 13px;&quot;&gt;&quot;hint&quot; and &quot;display answer&quot;&lt;/span&gt;&lt;div&gt;&lt;span style=&quot;font-size: 13px;&quot;&gt;in&amp;nbsp;&lt;/span&gt;&lt;span style=&quot;font-size: 13px; background-color: light-dark(#ffffff, var(--ge-dark-color, #121212)); color: light-dark(rgb(0, 0, 0), rgb(255, 255, 255));&quot;&gt;imported question&lt;/span&gt;&lt;/div&gt;" style="edgeLabel;html=1;align=center;verticalAlign=middle;resizable=0;points=[];" parent="Giim6YfqNWXIDRQ1aki3-99" vertex="1" connectable="0">
          <mxGeometry x="0.048" y="-1" relative="1" as="geometry">
            <mxPoint as="offset" />
          </mxGeometry>
        </mxCell>
        <mxCell id="Giim6YfqNWXIDRQ1aki3-101" value="" style="endArrow=classic;html=1;rounded=0;curved=0;startArrow=oval;startFill=0;" parent="1" edge="1">
          <mxGeometry width="50" height="50" relative="1" as="geometry">
            <mxPoint x="1410" y="1070" as="sourcePoint" />
            <mxPoint x="1500" y="1100" as="targetPoint" />
          </mxGeometry>
        </mxCell>
        <mxCell id="Giim6YfqNWXIDRQ1aki3-102" value="&lt;span style=&quot;font-size: 13px;&quot;&gt;section score&lt;/span&gt;" style="edgeLabel;html=1;align=center;verticalAlign=middle;resizable=0;points=[];" parent="Giim6YfqNWXIDRQ1aki3-101" vertex="1" connectable="0">
          <mxGeometry x="0.048" y="-1" relative="1" as="geometry">
            <mxPoint as="offset" />
          </mxGeometry>
        </mxCell>
        <mxCell id="Giim6YfqNWXIDRQ1aki3-105" value="" style="endArrow=classic;startArrow=classic;html=1;rounded=0;edgeStyle=orthogonalEdgeStyle;curved=1;" parent="1" edge="1">
          <mxGeometry width="50" height="50" relative="1" as="geometry">
            <mxPoint x="895" y="860" as="sourcePoint" />
            <mxPoint x="1084.97" y="862" as="targetPoint" />
            <Array as="points">
              <mxPoint x="875" y="860" />
              <mxPoint x="875" y="912" />
              <mxPoint x="1105" y="912" />
              <mxPoint x="1105" y="862" />
            </Array>
          </mxGeometry>
        </mxCell>
        <mxCell id="Giim6YfqNWXIDRQ1aki3-106" value="until all questiions are answered and completed" style="edgeLabel;html=1;align=center;verticalAlign=middle;resizable=0;points=[];" parent="Giim6YfqNWXIDRQ1aki3-105" vertex="1" connectable="0">
          <mxGeometry x="0.0129" y="3" relative="1" as="geometry">
            <mxPoint as="offset" />
          </mxGeometry>
        </mxCell>
        <mxCell id="Giim6YfqNWXIDRQ1aki3-111" value="" style="endArrow=classic;html=1;rounded=0;curved=0;startArrow=oval;startFill=0;" parent="1" edge="1">
          <mxGeometry width="50" height="50" relative="1" as="geometry">
            <mxPoint x="1560" y="1080" as="sourcePoint" />
            <mxPoint x="1460" y="1040" as="targetPoint" />
          </mxGeometry>
        </mxCell>
        <mxCell id="Giim6YfqNWXIDRQ1aki3-112" value="&lt;span style=&quot;font-size: 13px;&quot;&gt;section score&lt;/span&gt;" style="edgeLabel;html=1;align=center;verticalAlign=middle;resizable=0;points=[];" parent="Giim6YfqNWXIDRQ1aki3-111" vertex="1" connectable="0">
          <mxGeometry x="0.048" y="-1" relative="1" as="geometry">
            <mxPoint as="offset" />
          </mxGeometry>
        </mxCell>
        <mxCell id="Giim6YfqNWXIDRQ1aki3-118" value="" style="endArrow=none;html=1;rounded=0;exitX=0.5;exitY=0;exitDx=0;exitDy=0;entryX=0.5;entryY=1;entryDx=0;entryDy=0;" parent="1" source="Giim6YfqNWXIDRQ1aki3-119" target="Giim6YfqNWXIDRQ1aki3-56" edge="1">
          <mxGeometry width="50" height="50" relative="1" as="geometry">
            <mxPoint x="2205" y="910" as="sourcePoint" />
            <mxPoint x="1120" y="480" as="targetPoint" />
          </mxGeometry>
        </mxCell>
        <mxCell id="Giim6YfqNWXIDRQ1aki3-119" value="&lt;span style=&quot;font-size: 14px;&quot;&gt;play next section pompt&lt;/span&gt;" style="rounded=0;whiteSpace=wrap;html=1;" parent="1" vertex="1">
          <mxGeometry x="1440" y="790" width="160" height="100" as="geometry" />
        </mxCell>
        <mxCell id="Giim6YfqNWXIDRQ1aki3-122" value="" style="endArrow=classic;html=1;rounded=0;curved=0;startArrow=oval;startFill=1;" parent="1" edge="1">
          <mxGeometry width="50" height="50" relative="1" as="geometry">
            <mxPoint x="1530" y="760" as="sourcePoint" />
            <mxPoint x="1420" y="720" as="targetPoint" />
          </mxGeometry>
        </mxCell>
        <mxCell id="Giim6YfqNWXIDRQ1aki3-123" value="&lt;span style=&quot;font-size: 13px;&quot;&gt;Play&amp;nbsp;&lt;/span&gt;&lt;div&gt;&lt;span style=&quot;font-size: 13px;&quot;&gt;next section&amp;nbsp;&lt;/span&gt;&lt;/div&gt;" style="edgeLabel;html=1;align=center;verticalAlign=middle;resizable=0;points=[];" parent="Giim6YfqNWXIDRQ1aki3-122" vertex="1" connectable="0">
          <mxGeometry x="0.048" y="-1" relative="1" as="geometry">
            <mxPoint x="7" y="2" as="offset" />
          </mxGeometry>
        </mxCell>
        <mxCell id="Giim6YfqNWXIDRQ1aki3-126" value="" style="endArrow=classic;startArrow=classic;html=1;rounded=0;edgeStyle=orthogonalEdgeStyle;curved=1;entryX=1;entryY=0.75;entryDx=0;entryDy=0;" parent="1" target="sXabFZIURpEES0_cBn82-9" edge="1">
          <mxGeometry width="50" height="50" relative="1" as="geometry">
            <mxPoint x="-349.92999999999995" y="620" as="sourcePoint" />
            <mxPoint x="-159.95999999999992" y="622" as="targetPoint" />
            <Array as="points">
              <mxPoint x="-370" y="620" />
              <mxPoint x="-370" y="672" />
              <mxPoint x="-160" y="672" />
              <mxPoint x="-160" y="622" />
              <mxPoint x="-180" y="622" />
            </Array>
          </mxGeometry>
        </mxCell>
        <mxCell id="Giim6YfqNWXIDRQ1aki3-127" value="until user inputs a character" style="edgeLabel;html=1;align=center;verticalAlign=middle;resizable=0;points=[];" parent="Giim6YfqNWXIDRQ1aki3-126" vertex="1" connectable="0">
          <mxGeometry x="0.0129" y="3" relative="1" as="geometry">
            <mxPoint as="offset" />
          </mxGeometry>
        </mxCell>
        <mxCell id="Giim6YfqNWXIDRQ1aki3-128" value="" style="endArrow=classic;startArrow=classic;html=1;rounded=0;edgeStyle=orthogonalEdgeStyle;curved=1;entryX=1;entryY=0.75;entryDx=0;entryDy=0;" parent="1" target="Giim6YfqNWXIDRQ1aki3-7" edge="1">
          <mxGeometry width="50" height="50" relative="1" as="geometry">
            <mxPoint x="233.07000000000005" y="1205" as="sourcePoint" />
            <mxPoint x="403" y="1200" as="targetPoint" />
            <Array as="points">
              <mxPoint x="213" y="1205" />
              <mxPoint x="213" y="1257" />
              <mxPoint x="403" y="1257" />
              <mxPoint x="403" y="1195" />
            </Array>
          </mxGeometry>
        </mxCell>
        <mxCell id="Giim6YfqNWXIDRQ1aki3-129" value="until user inputs a valid category" style="edgeLabel;html=1;align=center;verticalAlign=middle;resizable=0;points=[];" parent="Giim6YfqNWXIDRQ1aki3-128" vertex="1" connectable="0">
          <mxGeometry x="0.0129" y="3" relative="1" as="geometry">
            <mxPoint as="offset" />
          </mxGeometry>
        </mxCell>
        <mxCell id="Giim6YfqNWXIDRQ1aki3-130" value="" style="endArrow=classic;startArrow=classic;html=1;rounded=0;edgeStyle=orthogonalEdgeStyle;curved=1;" parent="1" edge="1">
          <mxGeometry width="50" height="50" relative="1" as="geometry">
            <mxPoint x="345.07000000000005" y="1490" as="sourcePoint" />
            <mxPoint x="500" y="1490" as="targetPoint" />
            <Array as="points">
              <mxPoint x="325" y="1490" />
              <mxPoint x="325" y="1542" />
              <mxPoint x="530" y="1542" />
              <mxPoint x="530" y="1490" />
            </Array>
          </mxGeometry>
        </mxCell>
        <mxCell id="Giim6YfqNWXIDRQ1aki3-131" value="until user inputs &quot;yes&quot; or &quot;no&quot;" style="edgeLabel;html=1;align=center;verticalAlign=middle;resizable=0;points=[];" parent="Giim6YfqNWXIDRQ1aki3-130" vertex="1" connectable="0">
          <mxGeometry x="0.0129" y="3" relative="1" as="geometry">
            <mxPoint as="offset" />
          </mxGeometry>
        </mxCell>
        <mxCell id="Giim6YfqNWXIDRQ1aki3-134" value="" style="endArrow=classic;startArrow=classic;html=1;rounded=0;edgeStyle=orthogonalEdgeStyle;curved=1;entryX=0.979;entryY=0.9;entryDx=0;entryDy=0;entryPerimeter=0;" parent="1" edge="1">
          <mxGeometry width="50" height="50" relative="1" as="geometry">
            <mxPoint x="1443.03" y="870" as="sourcePoint" />
            <mxPoint x="1602.53" y="870" as="targetPoint" />
            <Array as="points">
              <mxPoint x="1430.03" y="870" />
              <mxPoint x="1430.03" y="922" />
              <mxPoint x="1623.03" y="922" />
              <mxPoint x="1623.03" y="870" />
            </Array>
          </mxGeometry>
        </mxCell>
        <mxCell id="Giim6YfqNWXIDRQ1aki3-135" value="until user inputs &quot;yes&quot; or &quot;no&quot;" style="edgeLabel;html=1;align=center;verticalAlign=middle;resizable=0;points=[];" parent="Giim6YfqNWXIDRQ1aki3-134" vertex="1" connectable="0">
          <mxGeometry x="0.0129" y="3" relative="1" as="geometry">
            <mxPoint as="offset" />
          </mxGeometry>
        </mxCell>
        <mxCell id="Giim6YfqNWXIDRQ1aki3-136" value="" style="endArrow=classic;startArrow=classic;html=1;rounded=0;edgeStyle=orthogonalEdgeStyle;curved=1;entryX=0.979;entryY=0.9;entryDx=0;entryDy=0;entryPerimeter=0;" parent="1" edge="1">
          <mxGeometry width="50" height="50" relative="1" as="geometry">
            <mxPoint x="863" y="1200" as="sourcePoint" />
            <mxPoint x="1022.5" y="1200" as="targetPoint" />
            <Array as="points">
              <mxPoint x="850" y="1200" />
              <mxPoint x="850" y="1252" />
              <mxPoint x="1043" y="1252" />
              <mxPoint x="1043" y="1200" />
            </Array>
          </mxGeometry>
        </mxCell>
        <mxCell id="Giim6YfqNWXIDRQ1aki3-137" value="until user inputs valid answer" style="edgeLabel;html=1;align=center;verticalAlign=middle;resizable=0;points=[];" parent="Giim6YfqNWXIDRQ1aki3-136" vertex="1" connectable="0">
          <mxGeometry x="0.0129" y="3" relative="1" as="geometry">
            <mxPoint as="offset" />
          </mxGeometry>
        </mxCell>
        <mxCell id="Giim6YfqNWXIDRQ1aki3-140" value="&lt;span style=&quot;font-size: 14px;&quot;&gt;add section score into main score&lt;/span&gt;" style="rounded=0;whiteSpace=wrap;html=1;" parent="1" vertex="1">
          <mxGeometry x="1172" y="800" width="180" height="90" as="geometry" />
        </mxCell>
        <mxCell id="Giim6YfqNWXIDRQ1aki3-141" value="" style="endArrow=none;html=1;rounded=0;exitX=0.5;exitY=0;exitDx=0;exitDy=0;entryX=0.482;entryY=0.987;entryDx=0;entryDy=0;entryPerimeter=0;" parent="1" source="Giim6YfqNWXIDRQ1aki3-140" target="Giim6YfqNWXIDRQ1aki3-56" edge="1">
          <mxGeometry width="50" height="50" relative="1" as="geometry">
            <mxPoint x="1052" y="575" as="sourcePoint" />
            <mxPoint x="417.5" y="470" as="targetPoint" />
          </mxGeometry>
        </mxCell>
        <mxCell id="Giim6YfqNWXIDRQ1aki3-142" value="" style="endArrow=classic;html=1;rounded=0;curved=0;startArrow=oval;startFill=0;" parent="1" edge="1">
          <mxGeometry width="50" height="50" relative="1" as="geometry">
            <mxPoint x="760" y="600" as="sourcePoint" />
            <mxPoint x="840" y="640" as="targetPoint" />
          </mxGeometry>
        </mxCell>
        <mxCell id="Giim6YfqNWXIDRQ1aki3-143" value="&lt;span style=&quot;font-size: 13px;&quot;&gt;section score&lt;/span&gt;" style="edgeLabel;html=1;align=center;verticalAlign=middle;resizable=0;points=[];" parent="Giim6YfqNWXIDRQ1aki3-142" vertex="1" connectable="0">
          <mxGeometry x="0.048" y="-1" relative="1" as="geometry">
            <mxPoint as="offset" />
          </mxGeometry>
        </mxCell>
        <mxCell id="Giim6YfqNWXIDRQ1aki3-144" value="" style="endArrow=classic;html=1;rounded=0;curved=0;startArrow=oval;startFill=0;" parent="1" edge="1">
          <mxGeometry width="50" height="50" relative="1" as="geometry">
            <mxPoint x="905" y="660" as="sourcePoint" />
            <mxPoint x="975" y="700" as="targetPoint" />
          </mxGeometry>
        </mxCell>
        <mxCell id="Giim6YfqNWXIDRQ1aki3-145" value="&lt;font style=&quot;font-size: 13px;&quot;&gt;score&lt;/font&gt;" style="edgeLabel;html=1;align=center;verticalAlign=middle;resizable=0;points=[];" parent="Giim6YfqNWXIDRQ1aki3-144" vertex="1" connectable="0">
          <mxGeometry x="0.048" y="-1" relative="1" as="geometry">
            <mxPoint as="offset" />
          </mxGeometry>
        </mxCell>
        <mxCell id="Giim6YfqNWXIDRQ1aki3-146" value="" style="endArrow=classic;html=1;rounded=0;curved=0;startArrow=oval;startFill=0;" parent="1" edge="1">
          <mxGeometry width="50" height="50" relative="1" as="geometry">
            <mxPoint x="1000" y="770" as="sourcePoint" />
            <mxPoint x="910" y="720" as="targetPoint" />
          </mxGeometry>
        </mxCell>
        <mxCell id="Giim6YfqNWXIDRQ1aki3-147" value="&lt;span style=&quot;font-size: 13px;&quot;&gt;section score&lt;/span&gt;" style="edgeLabel;html=1;align=center;verticalAlign=middle;resizable=0;points=[];" parent="Giim6YfqNWXIDRQ1aki3-146" vertex="1" connectable="0">
          <mxGeometry x="0.048" y="-1" relative="1" as="geometry">
            <mxPoint as="offset" />
          </mxGeometry>
        </mxCell>
        <mxCell id="Giim6YfqNWXIDRQ1aki3-148" value="" style="endArrow=classic;html=1;rounded=0;curved=0;startArrow=oval;startFill=0;" parent="1" edge="1">
          <mxGeometry width="50" height="50" relative="1" as="geometry">
            <mxPoint x="1160" y="740" as="sourcePoint" />
            <mxPoint x="1080" y="710" as="targetPoint" />
          </mxGeometry>
        </mxCell>
        <mxCell id="Giim6YfqNWXIDRQ1aki3-149" value="&lt;font style=&quot;font-size: 13px;&quot;&gt;score&lt;/font&gt;" style="edgeLabel;html=1;align=center;verticalAlign=middle;resizable=0;points=[];" parent="Giim6YfqNWXIDRQ1aki3-148" vertex="1" connectable="0">
          <mxGeometry x="0.048" y="-1" relative="1" as="geometry">
            <mxPoint as="offset" />
          </mxGeometry>
        </mxCell>
        <mxCell id="Giim6YfqNWXIDRQ1aki3-150" value="" style="endArrow=classic;html=1;rounded=0;curved=0;startArrow=oval;startFill=0;" parent="1" edge="1">
          <mxGeometry width="50" height="50" relative="1" as="geometry">
            <mxPoint x="1020" y="680" as="sourcePoint" />
            <mxPoint x="930" y="640" as="targetPoint" />
          </mxGeometry>
        </mxCell>
        <mxCell id="Giim6YfqNWXIDRQ1aki3-151" value="&lt;span style=&quot;font-size: 13px;&quot;&gt;section score&lt;/span&gt;" style="edgeLabel;html=1;align=center;verticalAlign=middle;resizable=0;points=[];" parent="Giim6YfqNWXIDRQ1aki3-150" vertex="1" connectable="0">
          <mxGeometry x="0.048" y="-1" relative="1" as="geometry">
            <mxPoint as="offset" />
          </mxGeometry>
        </mxCell>
        <mxCell id="Giim6YfqNWXIDRQ1aki3-154" value="" style="endArrow=none;html=1;rounded=0;exitX=0.5;exitY=0;exitDx=0;exitDy=0;entryX=0.5;entryY=1;entryDx=0;entryDy=0;" parent="1" source="Giim6YfqNWXIDRQ1aki3-155" target="Giim6YfqNWXIDRQ1aki3-45" edge="1">
          <mxGeometry width="50" height="50" relative="1" as="geometry">
            <mxPoint x="1565" y="910" as="sourcePoint" />
            <mxPoint x="790" y="890" as="targetPoint" />
          </mxGeometry>
        </mxCell>
        <mxCell id="Giim6YfqNWXIDRQ1aki3-155" value="&lt;font style=&quot;font-size: 14px;&quot;&gt;check if user input is hint&lt;/font&gt;" style="rounded=0;whiteSpace=wrap;html=1;" parent="1" vertex="1">
          <mxGeometry x="1075" y="1120" width="160" height="100" as="geometry" />
        </mxCell>
        <mxCell id="Giim6YfqNWXIDRQ1aki3-156" value="" style="endArrow=classic;html=1;rounded=0;curved=0;startArrow=oval;startFill=0;" parent="1" edge="1">
          <mxGeometry width="50" height="50" relative="1" as="geometry">
            <mxPoint x="1000" y="930" as="sourcePoint" />
            <mxPoint x="1040" y="1000" as="targetPoint" />
          </mxGeometry>
        </mxCell>
        <mxCell id="Giim6YfqNWXIDRQ1aki3-157" value="&lt;span style=&quot;font-size: 13px;&quot;&gt;user input&lt;/span&gt;" style="edgeLabel;html=1;align=center;verticalAlign=middle;resizable=0;points=[];" parent="Giim6YfqNWXIDRQ1aki3-156" vertex="1" connectable="0">
          <mxGeometry x="0.048" y="-1" relative="1" as="geometry">
            <mxPoint as="offset" />
          </mxGeometry>
        </mxCell>
        <mxCell id="Giim6YfqNWXIDRQ1aki3-158" value="" style="endArrow=classic;html=1;rounded=0;curved=0;startArrow=oval;startFill=0;" parent="1" edge="1">
          <mxGeometry width="50" height="50" relative="1" as="geometry">
            <mxPoint x="1190" y="1040" as="sourcePoint" />
            <mxPoint x="1290" y="1110" as="targetPoint" />
          </mxGeometry>
        </mxCell>
        <mxCell id="Giim6YfqNWXIDRQ1aki3-159" value="&lt;span style=&quot;font-size: 13px;&quot;&gt;&quot;answer&quot;&amp;nbsp;&lt;/span&gt;&lt;span style=&quot;background-color: light-dark(#ffffff, var(--ge-dark-color, #121212)); color: light-dark(rgb(0, 0, 0), rgb(255, 255, 255)); font-size: 13px;&quot;&gt;in&amp;nbsp;&lt;/span&gt;&lt;div&gt;&lt;span style=&quot;color: light-dark(rgb(0, 0, 0), rgb(255, 255, 255)); font-size: 13px; background-color: light-dark(#ffffff, var(--ge-dark-color, #121212));&quot;&gt;imported question&lt;/span&gt;&lt;/div&gt;" style="edgeLabel;html=1;align=center;verticalAlign=middle;resizable=0;points=[];" parent="Giim6YfqNWXIDRQ1aki3-158" vertex="1" connectable="0">
          <mxGeometry x="0.048" y="-1" relative="1" as="geometry">
            <mxPoint as="offset" />
          </mxGeometry>
        </mxCell>
        <mxCell id="Giim6YfqNWXIDRQ1aki3-160" value="" style="endArrow=none;html=1;rounded=0;exitX=0.5;exitY=0;exitDx=0;exitDy=0;entryX=0.456;entryY=1.01;entryDx=0;entryDy=0;entryPerimeter=0;" parent="1" source="Giim6YfqNWXIDRQ1aki3-161" target="Giim6YfqNWXIDRQ1aki3-155" edge="1">
          <mxGeometry width="50" height="50" relative="1" as="geometry">
            <mxPoint x="1510" y="1220" as="sourcePoint" />
            <mxPoint x="1140" y="1250" as="targetPoint" />
          </mxGeometry>
        </mxCell>
        <mxCell id="Giim6YfqNWXIDRQ1aki3-161" value="&lt;font style=&quot;font-size: 14px;&quot;&gt;display hint&lt;/font&gt;" style="rounded=0;whiteSpace=wrap;html=1;" parent="1" vertex="1">
          <mxGeometry x="1000" y="1400" width="160" height="100" as="geometry" />
        </mxCell>
        <mxCell id="Giim6YfqNWXIDRQ1aki3-162" value="" style="endArrow=classic;html=1;rounded=0;curved=0;startArrow=oval;startFill=0;" parent="1" edge="1">
          <mxGeometry width="50" height="50" relative="1" as="geometry">
            <mxPoint x="1120" y="1250" as="sourcePoint" />
            <mxPoint x="1080" y="1340" as="targetPoint" />
          </mxGeometry>
        </mxCell>
        <mxCell id="Giim6YfqNWXIDRQ1aki3-163" value="&lt;span style=&quot;font-size: 13px;&quot;&gt;&quot;hint&quot;&amp;nbsp;&lt;/span&gt;&lt;span style=&quot;background-color: light-dark(#ffffff, var(--ge-dark-color, #121212)); color: light-dark(rgb(0, 0, 0), rgb(255, 255, 255)); font-size: 13px;&quot;&gt;in&amp;nbsp;&lt;/span&gt;&lt;div&gt;&lt;span style=&quot;color: light-dark(rgb(0, 0, 0), rgb(255, 255, 255)); font-size: 13px; background-color: light-dark(#ffffff, var(--ge-dark-color, #121212));&quot;&gt;imported question&lt;/span&gt;&lt;/div&gt;" style="edgeLabel;html=1;align=center;verticalAlign=middle;resizable=0;points=[];" parent="Giim6YfqNWXIDRQ1aki3-162" vertex="1" connectable="0">
          <mxGeometry x="0.048" y="-1" relative="1" as="geometry">
            <mxPoint as="offset" />
          </mxGeometry>
        </mxCell>
        <mxCell id="Giim6YfqNWXIDRQ1aki3-164" value="" style="endArrow=classic;html=1;rounded=0;curved=0;startArrow=oval;startFill=0;" parent="1" edge="1">
          <mxGeometry width="50" height="50" relative="1" as="geometry">
            <mxPoint x="-510" y="1710" as="sourcePoint" />
            <mxPoint x="-470" y="1620" as="targetPoint" />
          </mxGeometry>
        </mxCell>
        <mxCell id="Giim6YfqNWXIDRQ1aki3-165" value="&lt;font style=&quot;font-size: 13px;&quot;&gt;Leaderboard&lt;/font&gt;&lt;div&gt;&lt;font style=&quot;font-size: 13px;&quot;&gt;dictionary&lt;/font&gt;&lt;/div&gt;" style="edgeLabel;html=1;align=center;verticalAlign=middle;resizable=0;points=[];" parent="Giim6YfqNWXIDRQ1aki3-164" vertex="1" connectable="0">
          <mxGeometry x="0.048" y="-1" relative="1" as="geometry">
            <mxPoint as="offset" />
          </mxGeometry>
        </mxCell>
        <mxCell id="kaDoTjIgjJ2LB2RfBxjr-1" value="" style="endArrow=classic;html=1;rounded=0;curved=0;startArrow=oval;startFill=0;" edge="1" parent="1">
          <mxGeometry width="50" height="50" relative="1" as="geometry">
            <mxPoint x="110" y="300" as="sourcePoint" />
            <mxPoint x="210" y="270" as="targetPoint" />
          </mxGeometry>
        </mxCell>
        <mxCell id="kaDoTjIgjJ2LB2RfBxjr-2" value="&lt;font style=&quot;font-size: 13px;&quot;&gt;name&lt;/font&gt;" style="edgeLabel;html=1;align=center;verticalAlign=middle;resizable=0;points=[];" vertex="1" connectable="0" parent="kaDoTjIgjJ2LB2RfBxjr-1">
          <mxGeometry x="0.048" y="-1" relative="1" as="geometry">
            <mxPoint as="offset" />
          </mxGeometry>
        </mxCell>
      </root>
    </mxGraphModel>
  </diagram>
</mxfile>
